<svg xmlns="http://www.w3.org/2000/svg" viewBox="0 0 39.73 44.02"><defs><style>.cls-1{fill:#1caade;}</style></defs><g id="Layer_2" data-name="Layer 2"><g id="Layer_1-2" data-name="Layer 1"><path class="cls-1" d="M20.69,44H9a17.44,17.44,0,0,1-4.08-.33,6.53,6.53,0,0,1-4.8-6.13C-.11,29.19.07,20.82,0,12.45A8.74,8.74,0,0,1,.83,8a6.37,6.37,0,0,1,5.69-3.5,18.06,18.06,0,0,1,1.94-.13c.29,0,.4-.14.39-.41,0-.57,0-1.13,0-1.7A2.25,2.25,0,0,1,10.72,0a2.33,2.33,0,0,1,2.55,1.62,7.76,7.76,0,0,1,.13,2.15c0,.39.12.54.53.54H25.8c.4,0,.53-.15.53-.54a7.76,7.76,0,0,1,.13-2.15A2.32,2.32,0,0,1,29,0a2.25,2.25,0,0,1,1.87,2.19c0,.5,0,1,0,1.49s.18.61.65.64a13.92,13.92,0,0,1,3.9.5,6.63,6.63,0,0,1,4.18,5.82c.24,8.4.06,16.81.09,25.21a8.88,8.88,0,0,1-.76,4.45,6.54,6.54,0,0,1-5.74,3.6C28.74,44.14,24.29,43.93,20.69,44Zm.06-4.55c3.51-.08,7.91.12,12.31-.09a1.89,1.89,0,0,0,2-1.62,12.14,12.14,0,0,0,.11-1.59q0-8.91,0-17.82c0-.49-.15-.64-.65-.64H5.2c-.5,0-.65.16-.64.65,0,2.08,0,4.17,0,6.26,0,4.26-.11,8.52.08,12.78a1.88,1.88,0,0,0,1.77,2c.87.05,1.74.11,2.61.11C12.64,39.46,16.25,39.47,20.75,39.47Zm-.9-26.3H34.43c.73,0,.75,0,.73-.74s0-1.2-.11-1.79A1.82,1.82,0,0,0,33.4,9a17.73,17.73,0,0,0-1.79-.11H9c-.86,0-1.71.07-2.56.11a1.85,1.85,0,0,0-1.74,1.67c0,.54-.09,1.09-.1,1.64,0,.87,0,.87.85.87Z"/><path class="cls-1" d="M22.13,24.2A2.27,2.27,0,1,1,20,21.91,2.29,2.29,0,0,1,22.13,24.2Z"/><path class="cls-1" d="M11.09,21.91a2.27,2.27,0,1,1-2.24,2.26A2.25,2.25,0,0,1,11.09,21.91Z"/><path class="cls-1" d="M30.87,24.17a2.26,2.26,0,0,1-4.51,0,2.26,2.26,0,1,1,4.51,0Z"/><path class="cls-1" d="M19.86,35.18A2.25,2.25,0,1,1,22.13,33,2.24,2.24,0,0,1,19.86,35.18Z"/><path class="cls-1" d="M11.13,35.18A2.22,2.22,0,0,1,8.85,33a2.27,2.27,0,0,1,2.2-2.31,2.26,2.26,0,1,1,.08,4.51Z"/><path class="cls-1" d="M28.62,35.18a2.26,2.26,0,1,1,0-4.51,2.33,2.33,0,0,1,2.23,2.24A2.23,2.23,0,0,1,28.62,35.18Z"/></g></g></svg>