<svg xmlns="http://www.w3.org/2000/svg" viewBox="0 0 85.52 68.12"><defs><style>.cls-1{fill:#1caade;}</style></defs><g id="Layer_2" data-name="Layer 2"><g id="Layer_1-2" data-name="Layer 1"><path class="cls-1" d="M73.26,58.49c0,2.21-.05,4.42,0,6.63a3.26,3.26,0,0,1-1.84,2.7,2.93,2.93,0,0,1-3.33-.56,3.13,3.13,0,0,1-1-2.47c0-4.33,0-8.67,0-13,0-.94-.09-1-1-1H65c-.67,0-.76.1-.77.79V64.66a3.27,3.27,0,0,1-1.34,2.84,3.09,3.09,0,0,1-4.76-1.56,3.78,3.78,0,0,1-.19-1.21v-13c0-.88-.09-1-1-1a7.08,7.08,0,0,1-2.59-.28c-2-.76-2.7-2.38-2.1-4.53a25.59,25.59,0,0,1,1.55-3.52c1.7-3.68,3.43-7.35,5.15-11,.36-.76.71-1.52,1.09-2.27a.57.57,0,0,0-.11-.78.54.54,0,0,0-.75,0,15.21,15.21,0,0,0-4.46,5c-1,2-1.85,4.09-2.73,6.15a3.9,3.9,0,0,1-1.89,2.25,3.14,3.14,0,0,1-4.32-2.19A4.24,4.24,0,0,1,46.28,37c.92-2.08,1.7-4.23,2.75-6.25A26.81,26.81,0,0,1,53,25a15.35,15.35,0,0,1,10-5,21.17,21.17,0,0,1,8.67.7,14.26,14.26,0,0,1,5,2.74A23.6,23.6,0,0,1,82.8,32c.83,1.86,1.61,3.74,2.43,5.6a3.14,3.14,0,0,1-2.92,4.46,2.94,2.94,0,0,1-2.71-1.81c-.77-1.67-1.51-3.34-2.2-5a15.59,15.59,0,0,0-5.22-6.78c-.27-.2-.58-.4-.89-.14s-.18.59,0,.89l5.48,11.67c.69,1.49,1.4,3,2.07,4.48a4,4,0,0,1,.27,3,3.34,3.34,0,0,1-2.43,2.23,9.54,9.54,0,0,1-2.5.21c-.68,0-.88.19-.88.89C73.25,53.93,73.26,56.21,73.26,58.49Z"/><path class="cls-1" d="M25.22,48.2c0,5.59,0,11.18,0,16.77a3.18,3.18,0,0,1-3.06,3.15A3.25,3.25,0,0,1,19,64.93c0-6.45,0-12.89,0-19.34,0-1-.11-1.12-1.12-1.12-.36,0-.72,0-1.08,0s-.69.22-.66.69c0,.17,0,.34,0,.51V64.59a3.32,3.32,0,0,1-1.34,2.9,2.92,2.92,0,0,1-3.2.28,3,3,0,0,1-1.74-2.7c0-.34,0-.69,0-1V31.38a3.2,3.2,0,0,0-.07-1c-.18-.56-.54-.67-.94-.24A10.19,10.19,0,0,0,7.13,33a12.65,12.65,0,0,0-1,5c0,.75,0,1.51,0,2.26A3.1,3.1,0,0,1,4.34,43,3,3,0,0,1,1,42.36a3.11,3.11,0,0,1-1-2.43c.05-1.45-.06-2.91.09-4.36a17.36,17.36,0,0,1,2-6.44,18,18,0,0,1,4.08-5.05,17.42,17.42,0,0,1,18-3A17.72,17.72,0,0,1,30,25a17.58,17.58,0,0,1,4.71,8.57,28.35,28.35,0,0,1,.34,7,3.06,3.06,0,0,1-3.45,2.58A3.18,3.18,0,0,1,28.9,39.9,32.51,32.51,0,0,0,28.81,36a11.53,11.53,0,0,0-2.47-5.78.65.65,0,0,0-.67-.28c-.26.07-.3.31-.35.53a4.79,4.79,0,0,0-.1,1.07Z"/><path class="cls-1" d="M57.32,8.2a8.61,8.61,0,0,1-4.41,1,9.36,9.36,0,0,1-3.13-.74c-.34-.14-.5-.29-.1-.59a4.19,4.19,0,0,0,1.44-3.23,5,5,0,0,1,1.17-3.26A4.14,4.14,0,0,1,56.51.16a4.28,4.28,0,0,1,3.08,3.17l.12.45c3.95-3.21,7.88-3.17,11.85,0A4.35,4.35,0,0,1,73,1.09a4.32,4.32,0,0,1,5-.5,4.29,4.29,0,0,1,2,3.54,6.53,6.53,0,0,0,.67,2.77,2.87,2.87,0,0,0,.9,1c.22.15.31.31-.05.46a8.44,8.44,0,0,1-7.2,0c-.14-.06-.28-.22-.42-.11s0,.29,0,.44a8.29,8.29,0,0,1-2.07,6.6A7.91,7.91,0,0,1,67,18.07a8.21,8.21,0,0,1-6.82-1.92,8.43,8.43,0,0,1-3-6C57.16,9.5,57.33,8.89,57.32,8.2Z"/><path class="cls-1" d="M17.57,1.46c4.52-.21,8.26,3.88,8.39,8a8.4,8.4,0,1,1-16.79.32A8.35,8.35,0,0,1,17.57,1.46Z"/></g></g></svg>