<svg xmlns="http://www.w3.org/2000/svg" viewBox="0 0 232.3 215.01"><defs><style>.cls-1{fill:#0aa8e0;}</style></defs><g id="Layer_2" data-name="Layer 2"><g id="Layer_1-2" data-name="Layer 1"><path class="cls-1" d="M102.06.82c-16.5,2.1-36,9.9-49.5,19.9-8.4,6.2-20.2,18.5-25.8,26.9-2.3,3.5-4.2,6.7-4.2,7.2s1.2,1.5,2.7,2.3c2.6,1.3,2.8,1.3,5.6-3.3a100.9,100.9,0,0,1,169-2.4,67.55,67.55,0,0,1,3.9,6.4c.3.8,1.4.7,3.6-.5s3-2.1,2.6-2.9c-6.8-11.5-19.5-25.6-30.4-33.7C157.86,4.72,129.46-2.58,102.06.82Z"/><path class="cls-1" d="M107.66,28.82c-7,2.1-15,8.9-18.5,15.7a32.09,32.09,0,0,0-2.5,19.1c1.6,7.8,4,12.1,9.8,17.3,19.5,17.5,50.4,3.6,50.4-22.7A29.92,29.92,0,0,0,130.16,31C124.46,28.12,113.56,27,107.66,28.82Zm20,8.7c16.9,8.8,16.8,33.1-.2,41.6-13.2,6.6-29.3-.1-33.4-13.7-1.9-6.3-1.9-8.1,0-14.3C98.16,37.32,114.56,30.62,127.66,37.52Z"/><path class="cls-1" d="M10.16,63.72C.06,66.92-3.44,80.42,4,88.22a14.53,14.53,0,0,0,15.8,4c4.4-1.4,4.5-1.4,14.5,2.9,20.7,9,45.9,16.6,62,18.7a70.55,70.55,0,0,1,10.4,1.8c1.2.5-2.9,7.4-20,33.3l-21.6,32.7-4.5.1a14.73,14.73,0,0,0-15,15c0,12,13.3,19.2,23.1,12.6,6.9-4.7,8.7-12.9,4.5-20.2l-2.3-4.2,21.8-32.8c12-18.1,22.2-33,22.6-33.1s7.1,9.5,14.8,21.3,17.7,27,22.2,33.9l8.1,12.4-1.9,3.8c-2.5,4.9-2.4,7.9.4,13.3,4.9,9.5,16.9,10.8,24.6,2.6,3.5-3.7,4.1-12.7,1.2-17.4-3.2-5.1-7.7-7.3-13.8-7l-5.1.3-10.3-15.5c-27.4-41.4-33-50.3-32.2-51,.4-.3,5.1-1.2,10.3-1.8,16.3-2,46.7-10.4,68.1-18.8,7.2-2.9,9-3.2,11.9-2.4,10.9,3.1,21.7-8.4,18-19.4-1.5-4.5-7-9.3-11.6-10.2-5.1-.9-12.2,2.1-15.1,6.5-2.5,3.7-3.2,11.6-1.3,15.1,1.2,2.3.8,2.5-19,9.3-41.4,14.1-68.3,17.4-95.7,11.8-12-2.5-35.6-10.1-50.1-16.1-9.2-3.8-10.2-4.5-9.6-6.4a16.59,16.59,0,0,0-5.7-17.8C20.46,63.22,14.26,62.42,10.16,63.72Zm10.6,9c2.5,2.6,2.9,3.6,2.4,6.3a8.49,8.49,0,0,1-7.3,7.3c-2.7.5-3.7.1-6.3-2.4-3.2-3.2-3.7-5.6-1.9-9.6C10.06,69.12,16.36,68.42,20.76,72.72ZM221.66,71a11.12,11.12,0,0,1,3.9,7.7c0,3-5.3,8-8.4,8-4.1,0-8-4.1-8-8.5C209.16,71.82,216.86,67.32,221.66,71ZM66,191.22a7.75,7.75,0,0,1-5.4,13.5c-5.4,0-9.9-5.2-8.3-9.7C54.46,188.72,61.16,186.82,66,191.22Zm110.8-1.1a8.47,8.47,0,0,1,2.7,9.3c-1.4,3.7-3.8,5.2-8.1,5.3a7.81,7.81,0,0,1-5.3-13.5C168.76,188.42,174,187.92,176.76,190.12Z"/><path class="cls-1" d="M8.56,108.42c0,25.9,10.5,52.8,27.9,71.5l4.4,4.8,2.5-2.5,2.4-2.5-3.7-3.7c-8-8-17.3-23.4-21.6-36a103.3,103.3,0,0,1-4.9-29.8c0-8.7-.4-9.5-5.1-9.5C8.76,100.72,8.56,101.52,8.56,108.42Z"/><path class="cls-1" d="M217.06,101.92c-.2.7-.6,6.5-.9,12.8a93,93,0,0,1-8.1,34.5c-3.1,7-11.9,20.4-16.9,25.8-4.1,4.4-4.1,4.4-1.8,7.5l1.8,2.4,5.2-5.6c16.4-18,25.7-40.8,26.9-66.4l.6-12.2h-3.2C219,100.72,217.36,101.32,217.06,101.92Z"/><path class="cls-1" d="M78.66,204.92a34.57,34.57,0,0,0-1.1,3.4c0,.5,9.8,3.4,17,5,9.2,2,30.8,2.3,40,.5,6.6-1.2,20-4.9,20-5.5a34.57,34.57,0,0,0-1.1-3.4l-1-3-5.7,1.9c-7.5,2.6-22,4.9-30.7,4.9s-23.2-2.3-30.7-4.9l-5.7-1.9Z"/></g></g></svg>