<svg xmlns="http://www.w3.org/2000/svg" viewBox="0 0 49.52 50.2"><defs><style>.cls-1{fill:#1caade;}</style></defs><g id="Layer_2" data-name="Layer 2"><g id="Layer_1-2" data-name="Layer 1"><path class="cls-1" d="M13.26,22.71h9A4.07,4.07,0,0,1,25.35,24a3.67,3.67,0,0,1,1.08,2.59q0,9.14,0,18.29A3.84,3.84,0,0,1,23,48.57a1.09,1.09,0,0,1-1.13-.78,3.09,3.09,0,0,1-.12-1V31.62c0-.58-.19-.82-.61-.82s-.61.26-.61.84c0,1,0,2,0,3v14c0,1.25-.33,1.57-1.59,1.57H7.48c-1,0-1.4-.36-1.4-1.38V32A2.78,2.78,0,0,0,6,31.23a.58.58,0,0,0-.74-.46.52.52,0,0,0-.5.59c0,.26,0,.51,0,.77v15c0,1.13-.57,1.59-1.67,1.37a4,4,0,0,1-3-3.12A9.45,9.45,0,0,1,0,43.79c0-5.56,0-11.13,0-16.7a4.16,4.16,0,0,1,4.37-4.38C7.33,22.74,10.29,22.71,13.26,22.71Z"/><path class="cls-1" d="M47.51,21.73q0,7.62,0,15.25a1.67,1.67,0,0,0,.39,1.12,7.18,7.18,0,0,1,1.58,3.83,7.47,7.47,0,0,1-14.84,1.69,7.32,7.32,0,0,1,1.76-5.74,1,1,0,0,0,.2-.72V32.28c0-.68,0-.73.74-.73h1.13c.34,0,.51.14.51.49,0,2,0,4.07,0,6.11,0,.55-.54.81-.84,1.19a5.09,5.09,0,0,0-.88,5.2,4.9,4.9,0,0,0,4,3.26,5.13,5.13,0,0,0,6-5,5.47,5.47,0,0,0-1.65-4,1.44,1.44,0,0,1-.43-1.09q0-15.79,0-31.6a3.1,3.1,0,0,0-5.76-1.65A2.75,2.75,0,0,0,39,6V12.6c0,.62-.06.68-.67.69H37.12c-.36,0-.53-.15-.53-.52,0-2.3-.1-4.6,0-6.89a5.47,5.47,0,0,1,6-5.15A5.54,5.54,0,0,1,47.42,5.4,12.72,12.72,0,0,1,47.51,7Z"/><path class="cls-1" d="M43.9,26c0,4.06,0,8.11,0,12.17a1.93,1.93,0,0,0,.7,1.61,3.79,3.79,0,0,1,1.29,2.38,3.88,3.88,0,1,1-7.72.57A3.39,3.39,0,0,1,39.3,40a2.61,2.61,0,0,0,.92-2.25c-.07-1.81,0-3.63,0-5.44,0-.77,0-.79.77-.8h.3c.39,0,.7-.15.74-.56s-.24-.62-.61-.7a1.75,1.75,0,0,0-.56-.05c-.45,0-.66-.14-.65-.62,0-1,0-2.09,0-3.13,0-.42.16-.6.58-.58a3.75,3.75,0,0,0,.67,0,.59.59,0,0,0,.57-.56.62.62,0,0,0-.47-.65,2,2,0,0,0-.81-.09c-.37,0-.53-.15-.53-.52,0-1.1,0-2.19,0-3.29,0-.36.15-.54.52-.53s.48,0,.72,0a.57.57,0,0,0,.57-.5.62.62,0,0,0-.42-.68,1.82,1.82,0,0,0-.86-.12c-.35,0-.54-.14-.53-.52,0-1.09,0-2.19,0-3.28,0-.38.16-.53.53-.52s.44,0,.66,0A.59.59,0,0,0,42,14a.63.63,0,0,0-.52-.67,2.8,2.8,0,0,0-.76-.07c-.47,0-.55-.14-.4-.58a1.83,1.83,0,0,1,3.47.12,3.52,3.52,0,0,1,.1,1Z"/><path class="cls-1" d="M19.45,12.65a6.23,6.23,0,0,1-6.22,6.24A6.3,6.3,0,0,1,7,12.58a6.36,6.36,0,0,1,6.22-6.19A6.2,6.2,0,0,1,19.45,12.65Z"/><path class="cls-1" d="M40.2,8.19c0-.63,0-1.27,0-1.9a1.86,1.86,0,0,1,1.87-2,1.89,1.89,0,0,1,1.83,2c0,1.31,0,2.61,0,3.91,0,.34,0,.55-.47.34a3,3,0,0,0-2.77,0c-.36.18-.47.06-.46-.29Z"/><path class="cls-1" d="M39,22.43c0,.53,0,1.07,0,1.6,0,.38-.14.57-.54.56s-.89,0-1.34,0-.5-.13-.5-.48c0-1.12,0-2.23,0-3.34,0-.33.13-.52.48-.52s1,0,1.44,0,.46.18.46.49Z"/><path class="cls-1" d="M39,16.77c0,.54,0,1.09,0,1.63,0,.37-.16.53-.52.53H37.12c-.36,0-.53-.15-.53-.53q0-1.63,0-3.27c0-.37.16-.53.53-.52h1.33c.36,0,.53.15.52.52C39,15.67,39,16.22,39,16.77Z"/><path class="cls-1" d="M39,28.07c0,.54,0,1.09,0,1.64,0,.36-.14.53-.52.52s-.92,0-1.38,0-.48-.14-.47-.46c0-1.13,0-2.26,0-3.38a.42.42,0,0,1,.47-.48c.48,0,1,0,1.43,0s.49.18.48.52C39,27,39,27.52,39,28.07Z"/><path class="cls-1" d="M14.22,1.51a2,2,0,0,1-.1.75A1.84,1.84,0,0,0,14,3.75a.7.7,0,0,1-.37.9.64.64,0,0,1-.91-.19A2.17,2.17,0,0,1,12.4,2.3,1.78,1.78,0,0,0,12.55,1a.76.76,0,0,1,.49-1c.42-.19.72.08.93.42A1.7,1.7,0,0,1,14.22,1.51Z"/><path class="cls-1" d="M7.42,1.55A2,2,0,0,1,8.7,2.85a3.7,3.7,0,0,0,.88,1.9c.25.21.16.6-.1.87a.63.63,0,0,1-.91.15A2.44,2.44,0,0,1,7.31,3.89a1.55,1.55,0,0,0-.54-1.07A.64.64,0,0,1,6.68,2,.81.81,0,0,1,7.42,1.55Z"/><path class="cls-1" d="M16.86,4.89a2.28,2.28,0,0,1,.94-1.73,1.5,1.5,0,0,0,.64-.88.72.72,0,0,1,.92-.6.77.77,0,0,1,.61.87A2.24,2.24,0,0,1,19,4.19a1.59,1.59,0,0,0-.62,1,.83.83,0,0,1-.9.73C17.08,5.87,16.87,5.56,16.86,4.89Z"/></g></g></svg>