<svg xmlns="http://www.w3.org/2000/svg" viewBox="0 0 49.55 47.93"><defs><style>.cls-1{fill:#1caade;}</style></defs><g id="Layer_2" data-name="Layer 2"><g id="Layer_1-2" data-name="Layer 1"><path class="cls-1" d="M14.8,23c0-3.65,0-7.3,0-10.94A3.65,3.65,0,0,1,16,9.17a3.6,3.6,0,0,1,2.49-.93c1.32,0,2.64,0,3.95,0,.47,0,.63-.15.62-.62C23,6.3,23,5,23,3.67A3.63,3.63,0,0,1,24.14,1,3.49,3.49,0,0,1,26.6,0c3.17,0,6.34,0,9.51,0A3.54,3.54,0,0,1,39.7,3.65c0,1.23,0,2.47,0,3.7,0,.88,0,.88.91.88,1.23,0,2.46,0,3.69,0a3.62,3.62,0,0,1,2.55,1,3.49,3.49,0,0,1,1.06,2.54c0,7.21,0,14.41,0,21.62,0,.45-.12.62-.6.54-1.39-.24-2.56.42-3.75,1-2.77,1.28-5.52,2.57-8.3,3.82a4.66,4.66,0,0,1-2.23.09c-.29,0-.22-.32-.19-.55a4.4,4.4,0,0,0-1.3-4,4.11,4.11,0,0,0-2.92-1.19c-3.77,0-7.53,0-11.3,0a1.41,1.41,0,0,0-1.22.49,12,12,0,0,1-.94,1c-.2.18-.34.13-.37-.15s0-.31,0-.46c0-3.66,0-7.33,0-11Zm25.49-.63a9,9,0,0,0-8.52-9A9.08,9.08,0,0,0,22.4,22,9.09,9.09,0,0,0,31,31.28,9,9,0,0,0,40.29,22.33ZM31.34,8.23c1.42,0,2.84,0,4.26,0,.45,0,.59-.16.59-.6,0-1.18,0-2.36,0-3.54,0-.42-.13-.58-.56-.58q-4.28,0-8.53,0c-.43,0-.57.16-.56.57,0,1.17,0,2.33,0,3.5,0,.48.13.66.64.65C28.56,8.21,30,8.23,31.34,8.23Z"/><path class="cls-1" d="M29.69,40.29h1.13c1.16,0,2.33,0,3.49,0a5,5,0,0,0,2.41-.53c2.91-1.37,5.83-2.71,8.74-4.07a2.78,2.78,0,0,1,4.08,2.23A3,3,0,0,1,48,40.48L36.84,46.77a2.54,2.54,0,0,1-1.27.34H9.07c-.83,0-.84,0-.84-.83v-7.6c0-.84,0-.84.87-.84h4.52a1.13,1.13,0,0,0,.91-.37c.84-.87,1.72-1.72,2.57-2.59a1,1,0,0,1,.81-.34H28.29a3,3,0,0,1,3.16,2.88,2.75,2.75,0,0,1-1.06,2.34C30.2,39.93,30,40.07,29.69,40.29ZM25.2,41.94H28c.54,0,.75-.2.76-.68s-.2-.72-.76-.72H22.37c-.54,0-.74.19-.75.68s.19.72.76.72Z"/><path class="cls-1" d="M6.82,42.09c0,1.72,0,3.43,0,5.14,0,.63,0,.69-.66.69-1.83,0-3.66,0-5.49,0-.48,0-.66-.16-.66-.66q0-5.21,0-10.42c0-.61,0-.66.68-.67H6.13c.63,0,.68.06.68.68C6.82,38.6,6.82,40.35,6.82,42.09Z"/><path class="cls-1" d="M31.36,27.37c-.41,0-.83,0-1.24,0s-.52-.16-.52-.53c0-.73,0-1.47,0-2.2,0-.43-.16-.58-.57-.56-.7,0-1.41,0-2.11,0-.42,0-.63-.14-.62-.59,0-.79,0-1.58,0-2.36,0-.42.17-.59.58-.58.74,0,1.47,0,2.21,0,.38,0,.51-.15.51-.52,0-.72,0-1.44,0-2.16,0-.42.14-.63.59-.62.79,0,1.57,0,2.36,0,.42,0,.58.17.58.58,0,.72,0,1.44,0,2.16,0,.43.16.57.57.56.7,0,1.4,0,2.1,0,.43,0,.64.14.63.59,0,.79,0,1.57,0,2.36,0,.42-.17.58-.58.58-.72,0-1.44,0-2.15,0-.44,0-.58.15-.56.57,0,.68,0,1.37,0,2.05s-.06.66-.69.67Z"/></g></g></svg>