<svg xmlns="http://www.w3.org/2000/svg" viewBox="0 0 21.87 52.65"><defs><style>.cls-1{fill:#1caade;}</style></defs><g id="Layer_2" data-name="Layer 2"><g id="Layer_1-2" data-name="Layer 1"><path class="cls-1" d="M10.68,0a6.26,6.26,0,0,1,2.6,1.24A5,5,0,0,1,14.54,7.4a4.94,4.94,0,0,1-4.4,2.86A5.1,5.1,0,0,1,5,6.13a5.19,5.19,0,0,1,4-6L9.24,0Z"/><path class="cls-1" d="M7.45,19.43l-1,1.43c-.21.31-.43.62-.65.92-.39.53-.39.57.22.8L10,24c1,.38,2,.75,3.07,1.15a2.13,2.13,0,0,1,1.43,2.42,2,2,0,0,1-2.58,1.46c-2.09-.76-4.16-1.55-6.23-2.33-1.3-.49-2.6-1-3.88-1.46a2,2,0,0,1-1-3.2L7.37,12.4a2,2,0,0,1,2.73-.86c.93.38,1.87.76,2.76,1.22a5.94,5.94,0,0,1,3.27,4.88,14.12,14.12,0,0,1,.09,1.59c0,.21,0,.4.28.49a8.17,8.17,0,0,1,4.63,4.52,5.91,5.91,0,0,1,.72,3.27,7.07,7.07,0,0,1-2.72,5.25.6.6,0,0,0-.25.78c.29.86.55,1.73.83,2.59a3.1,3.1,0,0,1-3,4.27c-1.15,0-2.29,0-3.44,0-.47,0-.61.16-.61.63q0,4.31,0,8.63a2.92,2.92,0,0,1-.84,2.23,2.6,2.6,0,0,1-4.23-.78,2.25,2.25,0,0,1-.17-1V41.21c0-.81,0-.81-.83-.81-1.09,0-2.18,0-3.28,0A3.17,3.17,0,0,1,.09,38a4,4,0,0,1,.26-2.31Q1.69,31.49,3,27.3c.2-.61.24-.63.84-.41,2.57,1,5.14,1.94,7.72,2.88a2.74,2.74,0,0,0,3.27-1.13,2.84,2.84,0,0,0-.48-3.57,5.2,5.2,0,0,0-1.74-.84c-1.8-.69-3.6-1.38-5.41-2-.47-.17-.51-.42-.35-.82.24-.62.46-1.24.7-1.86Z"/></g></g></svg>