<svg xmlns="http://www.w3.org/2000/svg" viewBox="0 0 440.04 223.1"><defs><style>.cls-1{fill:#00aced;}</style></defs><g id="Layer_2" data-name="Layer 2"><g id="Layer_1-2" data-name="Layer 1"><path class="cls-1" d="M14.6,209.31c6.87,0,8.63-7.61,8.63-13.28s-2.5-11.87-9.14-11.87S4.44,189.84,4.44,196s2.39,13.28,10.16,13.28M4.44,223.1H.87V181.78H4.55v4.43h0a12,12,0,0,1,10.28-5.68c8.85,0,12.26,8,12.26,15.72s-3.41,16.29-12,16.29a12.2,12.2,0,0,1-10.44-5.67h0Z"/><path class="cls-1" d="M40.82,209.31c7.83,0,9.31-6.47,9-12.72-5.11,0-15.67-.73-15.67,6.76a5.68,5.68,0,0,0,5.29,6,6,6,0,0,0,1.41-.08m9-19a6.08,6.08,0,0,0-5.63-6.49,5.94,5.94,0,0,0-1.46.08c-3.75,0-6.87,1.13-7.33,5.16H31.51a9.94,9.94,0,0,1,11.2-8.48l.16,0c6.58,0,10.72,3.06,10.61,9.87v14.19a63.33,63.33,0,0,0,0,6.75H49.79V207h0v.39a11.35,11.35,0,0,1-9.31,4.89,9.2,9.2,0,0,1-4-17.83,41.62,41.62,0,0,1,13.56-1.41Z"/><path class="cls-1" d="M63.81,211.69H60.46V188.48a51.83,51.83,0,0,0-.28-6.7h3.69v4.43h0a7.65,7.65,0,0,1,6.69-5.34h3.58v3.81H72c-5.33,0-8.11,3.8-8.23,9.53Z"/><path class="cls-1" d="M85.83,209.31c7.83,0,9.31-6.47,9-12.72-5.11,0-15.67-.73-15.67,6.76a5.68,5.68,0,0,0,5.29,6,6.07,6.07,0,0,0,1.41-.08m9-19a6.08,6.08,0,0,0-5.87-6.27,7.26,7.26,0,0,0-1.23.08c-3.74,0-6.86,1.14-7.32,5.17h-3.8a9.82,9.82,0,0,1,11-8.51l.38.05c6.58,0,10.73,3.07,10.61,9.88v20.94H94.85v-4.43h0v.4a11.32,11.32,0,0,1-9.3,4.88,9.19,9.19,0,0,1-4-17.82,41.72,41.72,0,0,1,13.57-1.42Z"/><path class="cls-1" d="M136,190.92c0-4.54-3.24-6.76-8.18-6.76s-8.85,5.68-8.85,12.49,3.4,12.66,8.85,12.66a7.62,7.62,0,0,0,8.18-7h4a10.66,10.66,0,0,1-11,10.31c-.23,0-.46,0-.68,0-8.91,0-13.06-7.72-13.06-15.89s4.32-15.84,13.4-15.84a10.57,10.57,0,0,1,11.33,9.72c0,.11,0,.22,0,.33Z"/><path class="cls-1" d="M153.6,209.31c7.77,0,9-6.47,9-12.72-5.05,0-15.66-.73-15.66,6.76a6,6,0,0,0,6,6,5.85,5.85,0,0,0,.73,0m8.91-19c-.34-4.88-2.84-6.41-7.09-6.41s-6.81,1.13-7.32,5.16H144.4a9.88,9.88,0,0,1,11.09-8.49l.26,0c6.64,0,10.73,3.06,10.62,9.87v20.94h-3.75v-4.08h0v.4a11.38,11.38,0,0,1-9.36,4.88,9.19,9.19,0,0,1-3.92-17.82,41.08,41.08,0,0,1,13.28-1.54Z"/><path class="cls-1" d="M184.08,184.16c-6.76,0-9,6.19-9,11.87s1.59,13.11,8.45,13.11c7.78,0,10.16-6.53,10.16-13.28s-2.72-11.7-9.64-11.7m9.76,23.22h0a12.09,12.09,0,0,1-10.22,5.67c-8.91,0-12.26-8.45-12.26-15.94s3.35-15.73,12.26-15.73a11.86,11.86,0,0,1,10.22,5.68h0V168.67h3.57v36.27a43.08,43.08,0,0,0,.34,6.75h-3.69Z"/><path class="cls-1" d="M212.74,209.31c7.83,0,9.31-6.47,9-12.72-5.11,0-15.67-.73-15.67,6.76a5.67,5.67,0,0,0,5.28,6,6.13,6.13,0,0,0,1.42-.08m9-19a6.09,6.09,0,0,0-5.63-6.49,6,6,0,0,0-1.47.08c-3.75,0-6.87,1.13-7.32,5.16h-3.8a9.82,9.82,0,0,1,11-8.51l.38.06c6.58,0,10.72,3.06,10.61,9.87v20.94h-3.69V207h0v.39a11.35,11.35,0,0,1-9.31,4.89,9.15,9.15,0,0,1-10-8.12,8.24,8.24,0,0,1-.05-.85,9.27,9.27,0,0,1,5.68-8.63,41.63,41.63,0,0,1,13.56-1.42Z"/><path class="cls-1" d="M246.74,172.93h-4.18v-4.47h4.18Zm-.3,8.66v30h-3.58v-30Z"/><path class="cls-1" d="M259.63,211.56h-3.58V188.34c0-1.16,0-2.31-.09-3.46s-.13-2.25-.21-3.29h3.7l.18,4.42.12.12a10,10,0,0,1,4-4.12,11.11,11.11,0,0,1,5.37-1.31,12,12,0,0,1,4.18.65,9.29,9.29,0,0,1,2.9,1.7,9,9,0,0,1,1.88,2.39,12.06,12.06,0,0,1,1.07,2.69,13.77,13.77,0,0,1,.45,2.6c.06.83.09,1.53.09,2.08v18.75h-3.58V192.22a8.38,8.38,0,0,0-2.09-6.09,7.7,7.7,0,0,0-5.79-2.15,7.92,7.92,0,0,0-3.82.87,8.06,8.06,0,0,0-2.69,2.29,9.85,9.85,0,0,0-1.58,3.29,14.48,14.48,0,0,0-.51,3.88Z"/><path class="cls-1" d="M291.81,211.56V184.88h-6v-3.29h6V175.2q0-3.87,1.67-5.67t5.55-1.79a6.29,6.29,0,0,1,1.7.24q.87.24,1.71.42v2.86a9.88,9.88,0,0,0-1.11-.18c-.38,0-.74-.06-1.1-.06a7.29,7.29,0,0,0-2.87.45,2.88,2.88,0,0,0-1.46,1.32,5,5,0,0,0-.51,2.11c0,.84,0,1.8,0,2.87v3.82h6.81v3.29h-6.81v26.68Z"/><path class="cls-1" d="M324.88,190.43c-.2-2.47-.89-4.16-2.09-5.08a8.09,8.09,0,0,0-5-1.37,14.32,14.32,0,0,0-2.69.24,7,7,0,0,0-2.24.83,4.89,4.89,0,0,0-1.61,1.62,6,6,0,0,0-.8,2.5h-3.82a10.41,10.41,0,0,1,1.34-3.94,8.55,8.55,0,0,1,2.45-2.62,9.7,9.7,0,0,1,3.37-1.47,18.24,18.24,0,0,1,4.06-.44,11.86,11.86,0,0,1,7.82,2.38c1.91,1.6,2.84,4.1,2.81,7.53v14.2a30.91,30.91,0,0,0,0,3.47c.08,1.15.16,2.25.24,3.28h-3.7l-.12-4.42h-.12l-.18.42a6.06,6.06,0,0,1-1.43,1.82,11,11,0,0,1-2.21,1.55,12.88,12.88,0,0,1-2.74,1.11,11,11,0,0,1-3,.42,11.87,11.87,0,0,1-3.91-.63A9.32,9.32,0,0,1,308.2,210a8.44,8.44,0,0,1-2.12-2.9,9.25,9.25,0,0,1-.78-3.91,8.6,8.6,0,0,1,1.67-5.28,10.36,10.36,0,0,1,4.36-3.37,12.87,12.87,0,0,1,3.2-.93,28,28,0,0,1,3.46-.33c1.17,0,2.35,0,3.52,0s2.3,0,3.37-.09Zm-15.7,12.77a5.23,5.23,0,0,0,2,4.51,7.88,7.88,0,0,0,4.75,1.46,9.09,9.09,0,0,0,4.74-1.1,7.66,7.66,0,0,0,2.81-2.9,11,11,0,0,0,1.25-4.09,27.39,27.39,0,0,0,.15-4.62q-1.9.06-4.59.06a24.9,24.9,0,0,0-5.17.53,10,10,0,0,0-4.21,1.94A5.12,5.12,0,0,0,309.18,203.2Z"/><path class="cls-1" d="M341.36,211.56h-3.58V188.34c0-1.16,0-2.31-.09-3.46s-.13-2.25-.21-3.29h3.7l.18,4.42.12.12a10,10,0,0,1,4-4.12,11.11,11.11,0,0,1,5.37-1.31,12,12,0,0,1,4.18.65,9.41,9.41,0,0,1,2.9,1.7,9,9,0,0,1,1.88,2.39,13.11,13.11,0,0,1,1.07,2.69,13.77,13.77,0,0,1,.45,2.6c.06.83.09,1.53.09,2.08v18.75h-3.58V192.22a8.38,8.38,0,0,0-2.09-6.09A7.73,7.73,0,0,0,350,184a7.9,7.9,0,0,0-3.82.87,8.06,8.06,0,0,0-2.69,2.29,9.66,9.66,0,0,0-1.58,3.29,14.48,14.48,0,0,0-.51,3.88Z"/><path class="cls-1" d="M389.89,190.78a6.84,6.84,0,0,0-2.32-5.13,9.19,9.19,0,0,0-5.85-1.67,7,7,0,0,0-3.74,1,9.09,9.09,0,0,0-2.77,2.72,13.59,13.59,0,0,0-1.76,4,18,18,0,0,0-.63,4.84,18.28,18.28,0,0,0,.63,4.86,14,14,0,0,0,1.76,4,8.86,8.86,0,0,0,2.77,2.75,7,7,0,0,0,3.74,1,8.36,8.36,0,0,0,5.73-1.94,7.16,7.16,0,0,0,2.44-5h3.88q-1.42,10.26-11.7,10.27a12,12,0,0,1-5.82-1.35,12.2,12.2,0,0,1-4.09-3.55,15.64,15.64,0,0,1-2.41-5.07,21.62,21.62,0,0,1-.81-5.91,20.9,20.9,0,0,1,.84-5.91,15.46,15.46,0,0,1,2.5-5.08,12.71,12.71,0,0,1,4.18-3.55,12.14,12.14,0,0,1,5.85-1.34,13.73,13.73,0,0,1,4.36.68,11.31,11.31,0,0,1,3.58,2,9.46,9.46,0,0,1,2.48,3.17,10.69,10.69,0,0,1,1,4.26Z"/><path class="cls-1" d="M404.76,172.93h-4.18v-4.47h4.18Zm-.3,8.66v30h-3.58v-30Z"/><path class="cls-1" d="M431,190.43q-.3-3.7-2.09-5.08a8.14,8.14,0,0,0-5-1.37,14.21,14.21,0,0,0-2.68.24,6.8,6.8,0,0,0-2.24.83,4.83,4.83,0,0,0-1.62,1.62,6.19,6.19,0,0,0-.8,2.5h-3.82a10.59,10.59,0,0,1,1.34-3.94,8.55,8.55,0,0,1,2.45-2.62,9.7,9.7,0,0,1,3.37-1.47,18.31,18.31,0,0,1,4.06-.44,11.86,11.86,0,0,1,7.82,2.38c1.91,1.6,2.85,4.1,2.81,7.53v14.2a33.48,33.48,0,0,0,.06,3.47c.08,1.15.16,2.25.24,3.28H431.2l-.11-4.42H431l-.18.42a6.27,6.27,0,0,1-1.44,1.82,10.94,10.94,0,0,1-2.2,1.55A13.18,13.18,0,0,1,424.4,212a11,11,0,0,1-3,.42,11.92,11.92,0,0,1-3.91-.63,9.41,9.41,0,0,1-3.16-1.82,8.57,8.57,0,0,1-2.12-2.9,9.25,9.25,0,0,1-.77-3.91,8.53,8.53,0,0,1,1.67-5.28,10.27,10.27,0,0,1,4.35-3.37,12.87,12.87,0,0,1,3.2-.93,28.15,28.15,0,0,1,3.46-.33c1.17,0,2.35,0,3.52,0s2.3,0,3.38-.09Zm-15.7,12.77a5.21,5.21,0,0,0,2,4.51,7.83,7.83,0,0,0,4.74,1.46,9.15,9.15,0,0,0,4.75-1.1,7.63,7.63,0,0,0,2.8-2.9,11,11,0,0,0,1.26-4.09,27.39,27.39,0,0,0,.15-4.62c-1.28,0-2.81.06-4.6.06a24.81,24.81,0,0,0-5.16.53,9.92,9.92,0,0,0-4.21,1.94A5.09,5.09,0,0,0,415.33,203.2Z"/><path class="cls-1" d="M403,72.54a8.69,8.69,0,0,1-5.3-8.69c0-1.57,1.39-.87,2.08-.87a15.83,15.83,0,0,0,12-5.83,18.18,18.18,0,0,0-1.21-25,14.88,14.88,0,0,0-23.83.61A8.69,8.69,0,0,1,380,35.41c-3.83,0-1.39,2.87-1.39,3.48s-.61,1-1,1-.78,1.57-.78,2.09a1,1,0,0,1-.79,1c-1.65,0-1.21,1.39-1.13,1.82a1.48,1.48,0,0,1-.6,1.31,3.6,3.6,0,0,0-1.13,2.52c0,1.74,1.56,3,4.26,5a6.7,6.7,0,0,1,3,5.21,14.94,14.94,0,0,0,.78,5A3.38,3.38,0,0,1,380,68.37a3.27,3.27,0,0,1-1.73.43,55.49,55.49,0,0,0-13.48,4,15,15,0,0,1-8.7.61,50.39,50.39,0,0,1-4-3.3,6.18,6.18,0,0,1,1.31-5,7.31,7.31,0,0,0,5,1.48A72.67,72.67,0,0,0,367,65.32a2.38,2.38,0,0,1,1.74,0,4.6,4.6,0,0,0,6.29-1.69,4.46,4.46,0,0,0,.58-1.7c1.3-4.52-1.74-3.22-2.17-3s-.87,0-.7,0,0-1-.78-1a10.62,10.62,0,0,0-3.48,1.66,1.16,1.16,0,0,1-1.22,0c-1.65-.79-6.69,0-8.17-2.35a101.87,101.87,0,0,0-1.91-13.57,2,2,0,0,1,0-1.82c1.3-1.92,4.78,0,6.6,0A3.49,3.49,0,0,0,367.13,40c.61-.78,1,0,1.3-.52s0-.87,0-1.13,0,0,.7-.53,0-1,0-1.3,2.09,0,1.22-2.35a3.46,3.46,0,0,1,.87-3.39,8.7,8.7,0,0,0-.36-12.29,7.94,7.94,0,0,0-1.3-1,13,13,0,0,0-18.31-.65c-.22.21-.44.42-.64.65a15.29,15.29,0,0,0-1.92,14.34,3.92,3.92,0,0,1-2.52,4.44,38.21,38.21,0,0,0-6.35,4.43,39.23,39.23,0,0,1,25-36,16.57,16.57,0,0,0,2.09,2.18c-1.65,1.22-5.22,4.43-5.22,4.43h1.91s3.13-2.69,4.61-3.74a20.29,20.29,0,0,0,3.74,2.18l-2.52,4.61.78.52a1.39,1.39,0,0,1,.61.43l2.7-4.52a17.25,17.25,0,0,0,5.13,1v6.78h-5.13v.52a7.2,7.2,0,0,1,.6,1.13h3.83V32.54h1.74V29.67a32.54,32.54,0,0,0,7-.52h0l2.18-1.91h-.61c-2.61,0-5,.52-7.13.6h-1.05V20a37.24,37.24,0,0,0,9.22-1.31c.79,2.09,2.35,7,2.35,7h1.57s-1.48-5-2.35-7a38.39,38.39,0,0,0,7.39-3.13,44,44,0,0,1,4.87,7.57l-3.57,1a15.7,15.7,0,0,1,3.05.61h1v1l2.87.35v-.61l-1-2.17a53.48,53.48,0,0,0,6.87-4A39.3,39.3,0,0,1,403,72.54M375,2.11A41.92,41.92,0,0,0,368,5.93,12.25,12.25,0,0,1,366.17,4a41.1,41.1,0,0,1,8.7-1.91M372.52,8.8A18.11,18.11,0,0,1,369.39,7a42.47,42.47,0,0,1,7.13-3.74,49.52,49.52,0,0,0-4,5.56m5.83-5.22v6.53a17.54,17.54,0,0,1-4.18-.79c1.22-1.91,2.7-3.82,4.18-5.74m1.73,8.18a17.37,17.37,0,0,0,5.14-1c1.21,2.09,2.34,4.35,3.39,6.52a35.05,35.05,0,0,1-8.7,1.22Zm0-8.26a70.16,70.16,0,0,1,4.18,5.82,17,17,0,0,1-4.18.79ZM388.78,7a18.11,18.11,0,0,1-3.13,1.82,53.53,53.53,0,0,0-3.48-5.56A42.11,42.11,0,0,1,389.22,7m3.21-2.87a18,18,0,0,1-1.56,1.82A40.8,40.8,0,0,0,384,2.11a35.5,35.5,0,0,1,8.69,2M397.56,14a33.37,33.37,0,0,1-6.87,2.87,68.52,68.52,0,0,0-3.47-6.7A20.08,20.08,0,0,0,390.87,8a39.19,39.19,0,0,1,6.61,6M394,4.71a38.14,38.14,0,0,1,8.69,5.22,27.67,27.67,0,0,1-4.52,3.22,45.57,45.57,0,0,0-6.69-6.26l2.08-2.18M411,18.28a45.7,45.7,0,0,1-6.6,3.83,39.2,39.2,0,0,0-4.79-7.66,47.07,47.07,0,0,0,4.79-3.39A38.2,38.2,0,0,1,411,18.28M379.22.11a41,41,0,1,0,41,41,41,41,0,0,0-41-41h0"/><path class="cls-1" d="M334.43,11.06l-.61.61a17.39,17.39,0,0,0-7,13.91v1.83l1.13-1.22a26,26,0,0,0,6.87-14.35V10.19Z"/><path class="cls-1" d="M323.3,21.76v.69a24.64,24.64,0,0,0-1.48,6.09A18.59,18.59,0,0,0,325,42.71v1l.53-2.61a52.48,52.48,0,0,0-1.83-18.7L323,21Z"/><path class="cls-1" d="M319.22,38.45v.7A21.56,21.56,0,0,0,327.91,59l1,.6V58.45a50.15,50.15,0,0,0-8.09-19.65l-1-1.13Z"/><path class="cls-1" d="M320.61,56.71v.7A26.06,26.06,0,0,0,336,75.58l1.22.44-.44-1.22a54.07,54.07,0,0,0-15.48-18L320.17,56Z"/><path class="cls-1" d="M337.91,19.93l-.69.44a15.91,15.91,0,0,0-8.7,14.52v1.3l1-.78a38.61,38.61,0,0,0,8.69-14.35l.52-1.56Z"/><path class="cls-1" d="M334.17,32.71l-.52.53a19.28,19.28,0,0,0-6.43,14.17,10.36,10.36,0,0,0,.69,3.48v1l.7-1a40.16,40.16,0,0,0,5.74-17.4v-1.3Z"/><path class="cls-1" d="M334.43,44.89v.52A20.74,20.74,0,0,0,330,57.24a14.2,14.2,0,0,0,2.69,7.91l.53.87.52-.87a44.8,44.8,0,0,0,1.91-14.87,20.74,20.74,0,0,0-.61-4.7V44.37Z"/><path class="cls-1" d="M337.56,57.84v.61a22.9,22.9,0,0,0-1.13,7.48,14.8,14.8,0,0,0,7,12.44l.78.52V77a49.86,49.86,0,0,0-5.48-18.7l-.69-1Z"/><path class="cls-1" d="M328.52,75.06v.61a19.13,19.13,0,0,0,20.61,11.39H350l-.52-.78a53.85,53.85,0,0,0-20-11.3h-1.31Z"/><path class="cls-1" d="M344.69,89.76H343l1.66.69a33.54,33.54,0,0,0,20.78,2,11.31,11.31,0,0,0,4.52-3,36.87,36.87,0,0,1,22.09,15h.43a4.71,4.71,0,0,0,1.74-1.21h0a43.38,43.38,0,0,0-13.39-11,52.2,52.2,0,0,0-36.35-1.74"/><path class="cls-1" d="M345.13,71.24v.61c1,6.52,3.65,15.13,14.78,14.17h.7v-.7a57.17,57.17,0,0,0-14.44-14.08L345,70.63Z"/><path class="cls-1" d="M423.48,10.54v1.65a26,26,0,0,0,7.21,14l.79.7V25.67h0a17.36,17.36,0,0,0-7.05-13.91l-.61-.61Z"/><path class="cls-1" d="M435,21l-.69,1.47a53.93,53.93,0,0,0-1.92,18.7l.61,2.61v-.52l1.31-.53a18.9,18.9,0,0,0,3.13-14.17A24.64,24.64,0,0,0,436,22.45v-.69Z"/><path class="cls-1" d="M439.3,37.67l-.95,1.13a52.74,52.74,0,0,0-8.09,19.65v1.13l1-.6a21.77,21.77,0,0,0,8.69-19.83V37.67Z"/><path class="cls-1" d="M438.09,56l-1.22.78a53.82,53.82,0,0,0-15.22,18V76l1.22-.44a26.05,26.05,0,0,0,14.95-18.17v-.7Z"/><path class="cls-1" d="M420.26,19.32l.52,1.57a36.77,36.77,0,0,0,8.7,14.52l.87.78v-1.3a16,16,0,0,0-8.7-14.7l-.7-.43Z"/><path class="cls-1" d="M423.91,32.28v1.3A38.89,38.89,0,0,0,429.65,51l.61,1v-1a13.43,13.43,0,0,0,.69-3.48,19.61,19.61,0,0,0-6.52-14.17v-.53Z"/><path class="cls-1" d="M423.82,44.37v1.21a20.73,20.73,0,0,0-.6,4.7,42.57,42.57,0,0,0,1.91,14.87l.52.87.52-.87a14,14,0,0,0,2.61-7.91,20.59,20.59,0,0,0-3.91-11.83v-.52Z"/><path class="cls-1" d="M420.87,57.32l-.7,1a48.56,48.56,0,0,0-6,18.87v2.26l1.05-1a15,15,0,0,0,7.13-12.61,22.86,22.86,0,0,0-1.13-7.48v-.61Z"/><path class="cls-1" d="M430.43,74.54h-1.3A55,55,0,0,0,409,85.85l-.78,1.21h1a19.21,19.21,0,0,0,20.26-11.3v-.61Z"/><path class="cls-1" d="M377.48,91.5a43.47,43.47,0,0,0-13.31,11h0a6.58,6.58,0,0,0,1.74,1.31h0a37.24,37.24,0,0,1,22.17-14.35,10.5,10.5,0,0,0,4.44,3,33.55,33.55,0,0,0,20.78-2l1.65-.6-1.73-.53a52.83,52.83,0,0,0-36.35,1.74"/><path class="cls-1" d="M413.56,70.63l-1,.61c-3.57,2.43-13.74,11-14.43,14.08V86h.69c11,1,13.74-7.65,14.78-14.17Z"/><path class="cls-1" d="M131,30.37h11.74V92.63H131ZM130,3.06h13.91V15.84H130Z"/><path class="cls-1" d="M42.08,30.45H53.82V92.71H42.26V83.5h0a23.74,23.74,0,0,1-21.39,11,20.36,20.36,0,0,1-20.72-20,20,20,0,0,1,.11-2.45V30.45H12V67.24C12,78.37,14.52,86,25.65,86a14.76,14.76,0,0,0,13.82-8.7,45.93,45.93,0,0,0,2.44-14.61Z"/><path class="cls-1" d="M77.82,39.58h0a21.48,21.48,0,0,1,18.79-11,21.39,21.39,0,0,1,23.29,19.3c.06.61.09,1.22.1,1.83V93.15H108.26V53.5c0-10.35-4.35-15.92-14.26-15.92a16.28,16.28,0,0,0-11.39,4.61c-1.74,1.39-4.79,4.44-4.79,16.61V92.71h-12V30.45h12Z"/><path class="cls-1" d="M192.17,50.37c-.61-7.74-4.35-13.13-12.69-13.13-11.22,0-15.57,9.65-15.57,24.26s4.35,24.26,15.57,24.26c7.73,0,12.52-5.05,13.13-13.91h11.73A23.47,23.47,0,0,1,179.9,94.31l-.6,0c-19.82,0-27.74-14.09-27.74-32.35s9.13-33.22,28.78-33.22a22,22,0,0,1,23.44,20.47c0,.4,0,.79,0,1.19Z"/><path class="cls-1" d="M253.21,55.58c0-10.34-4.43-18.34-15.73-18.34a16.34,16.34,0,0,0-15.68,17c0,.45,0,.9.11,1.35Zm-31.3,8.09c-.78,10.87,3.65,22.09,15.57,22.09a13.05,13.05,0,0,0,14.89-10.89,12.35,12.35,0,0,0,.15-1.72h12.35c-1.92,14.09-12.7,21.13-27.48,21.13-19.91,0-27.74-14.09-27.74-32.35s9.13-33.22,28.7-33.22,27.21,12.09,27.21,29.22v5.74Z"/><path class="cls-1" d="M278.87,92.45V38.71h-10.7V30.54h10.7v-13A17.39,17.39,0,0,1,296.15,0a17,17,0,0,1,2,.11,47.33,47.33,0,0,1,8.7,1.21v9.74h-6c-6.61,0-10.44,1.74-10.09,8.7V30.54h14.35v8.17H290.52V92.45Z"/><rect class="cls-1" y="135.32" width="435.12" height="2.35"/></g></g></svg>