<svg xmlns="http://www.w3.org/2000/svg" viewBox="0 0 155.72 83.14"><defs><style>.cls-1{fill:#03a8e1;}</style></defs><g id="Layer_2" data-name="Layer 2"><g id="Layer_1-2" data-name="Layer 1"><path class="cls-1" d="M134.39,0a14.52,14.52,0,1,0,14.52,14.52A14.53,14.53,0,0,0,134.39,0m11.32,6.42a19.9,19.9,0,0,1-2.33,1.35,14.87,14.87,0,0,0-1.74-2.71,12.92,12.92,0,0,0,1.69-1.21,13.81,13.81,0,0,1,2.38,2.57M139.6,1.62a14.12,14.12,0,0,1,3.26,1.87,14,14,0,0,1-1.6,1.13,15.17,15.17,0,0,0-2.39-2.21,7.76,7.76,0,0,0,.73-.79m1.13,3.3a13.48,13.48,0,0,1-2.45,1,20.34,20.34,0,0,0-1.21-2.37,6.57,6.57,0,0,0,1.33-.77,14.63,14.63,0,0,1,2.33,2.12M139,1.4a5.69,5.69,0,0,1-.64.66A14.45,14.45,0,0,0,135.94.71,13.39,13.39,0,0,1,139,1.4m-1.13,1a5.59,5.59,0,0,1-1.12.62,22.67,22.67,0,0,0-1.4-1.95,14.78,14.78,0,0,1,2.52,1.33m-3.19-1.23a22.06,22.06,0,0,1,1.49,2.06,5.82,5.82,0,0,1-1.49.26Zm0,2.92a6.65,6.65,0,0,0,1.82-.34A20.15,20.15,0,0,1,137.7,6.1a12.78,12.78,0,0,1-3,.42Zm-.61-2.89V3.53a6.75,6.75,0,0,1-1.48-.26,22.37,22.37,0,0,1,1.48-2M132,3.06a5.46,5.46,0,0,1-1.11-.62,14.19,14.19,0,0,1,2.5-1.32A22.09,22.09,0,0,0,132,3.06M132.87.7a15.74,15.74,0,0,0-2.45,1.35,5.7,5.7,0,0,1-.65-.65,14.22,14.22,0,0,1,3.1-.7m9.95,24.93c-1.94-1.07-2-2.53-1.87-3.07s.48-.31.72-.31a5.63,5.63,0,0,0,4.25-2.06,6.44,6.44,0,0,0-.41-8.84c-3.08-3-6.34-2.44-8.45.21a3.21,3.21,0,0,1-2.4.92c-1.35-.05-.5,1-.5,1.23s-.2.38-.32.34c-.46-.13-.28.55-.28.76a.32.32,0,0,1-.29.31c-.57,0-.41.51-.39.65a.53.53,0,0,1-.23.48,1.24,1.24,0,0,0-.39.89c0,.62.56,1,1.51,1.75a2.26,2.26,0,0,1,1.08,1.85,5.8,5.8,0,0,0,.27,1.76A1.2,1.2,0,0,1,134,24.3a18.42,18.42,0,0,0-4.66,1.43,5.71,5.71,0,0,1-3,.2,14.49,14.49,0,0,1-1.43-1.16,2.23,2.23,0,0,1,.47-1.79,2.49,2.49,0,0,0,1.76.52,22.9,22.9,0,0,0,2.93-.43.8.8,0,0,1,.63,0,1.66,1.66,0,0,0,2.44-1.2c.46-1.59-.64-1.15-.77-1.08s-.33.05-.26-.08c.2-.41-.1-.37-.28-.38-.44,0-1,.43-1.21.6a.45.45,0,0,1-.45.12c-.59-.3-2.35.13-2.89-.83a32.77,32.77,0,0,0-.7-4.79.66.66,0,0,1,.06-.64c.45-.67,1.68.05,2.35,0a1.21,1.21,0,0,0,1.15-.63c.21-.26.36-.12.48-.19s0-.28.06-.38.11-.05.25-.18,0-.37,0-.47c.2-.3.73-.06.41-.84a1.25,1.25,0,0,1,.31-1.2c.39-.5,1.89-2.61-.76-4.8S125.9,4.22,124.26,6s-.83,4.39-.66,5.07a1.44,1.44,0,0,1-.89,1.58,13.07,13.07,0,0,0-2.25,1.57,13.84,13.84,0,0,1,8.72-12.6,6.05,6.05,0,0,0,.74.78c-.58.43-1.85,1.56-1.85,1.56a3,3,0,0,1,.34.06l.35.1s1.11-1,1.63-1.32a6.5,6.5,0,0,0,1.33.77c-.26.43-.89,1.62-.89,1.62l.28.18.21.16s.69-1.3,1-1.74a6.51,6.51,0,0,0,1.8.34V6.52c-.34,0-1.22,0-1.57-.08l-.23,0,.13.19a3.37,3.37,0,0,1,.23.4l0,0h.05c.26,0,1.06.05,1.36.05v4.35h.61v-1c.88,0,1.62-.1,2.51-.18h0l.78-.69-.43,0c-.94.12-1.77.18-2.51.22l-.39,0V7.11a13.83,13.83,0,0,0,3.25-.45c.29.71.85,2.46.85,2.46l.56-.18s-.55-1.73-.83-2.45a13.84,13.84,0,0,0,2.6-1.11,14.14,14.14,0,0,1,1.72,2.67c-.43.2-1.21.47-1.21.47a6.29,6.29,0,0,1,1.1.22l.37-.16c.05.13.16.38.16.38l.78.35L144,9.09l-.32-.76a21.69,21.69,0,0,0,2.42-1.4,13.92,13.92,0,0,1-3.23,18.7"/><path class="cls-1" d="M118.55,3.88l-.22.2c-.86.76-2.8,2.75-2.5,4.93l0,.15.1.44.27-.25a9,9,0,0,0,2.45-5.07l.1-.6Z"/><path class="cls-1" d="M114.6,7.65l-.1.27a10.21,10.21,0,0,0-.51,2.15,6.58,6.58,0,0,0,1.11,5l.14.18.14.18.19-.92a18.11,18.11,0,0,0-.67-6.6l-.2-.52Z"/><path class="cls-1" d="M113.16,13.55l0,.27c-.1,1.47,0,5.09,2.9,7l.35.22v-.41a18.63,18.63,0,0,0-2.86-6.94l-.34-.42Z"/><path class="cls-1" d="M113.66,20l0,.25c.43,2.08,2.41,5.45,5.45,6.43l.42.13-.15-.41A19,19,0,0,0,114,20.05l-.43-.27Z"/><path class="cls-1" d="M119.79,7l-.25.14c-2.26,1.39-3.33,3.06-3.24,5.13l0,.48.33-.28a13.59,13.59,0,0,0,3.21-5.08l.16-.54Z"/><path class="cls-1" d="M118.45,11.55l-.17.16c-.58.55-2.46,2.55-2.3,5a4.79,4.79,0,0,0,.26,1.21l.13.4.25-.34a14.3,14.3,0,0,0,2-6.15l0-.47Z"/><path class="cls-1" d="M118.55,15.84l-.13.19a7.31,7.31,0,0,0-1.4,4.18A5.12,5.12,0,0,0,118,23l.2.3.17-.31a15,15,0,0,0,.68-5.24,6.37,6.37,0,0,0-.2-1.67l-.12-.44Z"/><path class="cls-1" d="M119.65,20.43l-.06.2a8.13,8.13,0,0,0-.4,2.65,5.25,5.25,0,0,0,2.53,4.47l.27.17.06-.37s0-.3,0-.3A17.85,17.85,0,0,0,120,20.56l-.25-.32Z"/><path class="cls-1" d="M116.45,26.52l.12.2c1.22,2,3.29,4.69,7.17,4l.32-.06-.18-.27c-.72-1.08-5.43-3.73-7.1-4l-.45-.08Z"/><path class="cls-1" d="M122.19,31.72h0l-.61.16.58.24c2.47,1,5.56,1.31,7.35.71a4,4,0,0,0,1.58-1.09c3.16.33,6.11,2.95,7.83,5.09l.1.11.13,0a2.09,2.09,0,0,0,.61-.43l.13-.14-.11-.14A15.49,15.49,0,0,0,135,32.33c-2.53-1.24-7-2.2-12.85-.61"/><path class="cls-1" d="M122.32,25.16l0,.21c.37,2.32,1.31,5.37,5.24,5l.25,0-.06-.24c-.27-1.06-3.86-4.13-5.12-5l-.38-.19Z"/><path class="cls-1" d="M150.05,3.68l.1.6a9,9,0,0,0,2.45,5.07l.28.24.09-.43L153,9c.3-2.18-1.64-4.18-2.49-4.93l-.23-.2Z"/><path class="cls-1" d="M154.13,7.39l-.2.52a18.11,18.11,0,0,0-.67,6.6l.19.92.14-.18.14-.18a6.58,6.58,0,0,0,1.11-5,10.21,10.21,0,0,0-.51-2.15l-.1-.27Z"/><path class="cls-1" d="M155.65,13.28l-.34.42a18.43,18.43,0,0,0-2.85,6.94l0,.41.34-.22c2.94-1.92,3-5.54,2.91-7l0-.27Z"/><path class="cls-1" d="M155.22,19.78l-.43.27a19,19,0,0,0-5.39,6.38l-.15.41.42-.13c3-1,5-4.35,5.45-6.43l0-.25Z"/><path class="cls-1" d="M148.92,6.8l.16.54a13.52,13.52,0,0,0,3.11,5.15l.33.28,0-.48c.13-2.06-.9-3.76-3.14-5.19L149.16,7Z"/><path class="cls-1" d="M150.21,11.39l0,.47a14.09,14.09,0,0,0,2,6.14l.24.35.13-.4a4.39,4.39,0,0,0,.26-1.21c.16-2.48-1.72-4.48-2.3-5l-.17-.16Z"/><path class="cls-1" d="M150.16,15.65l-.13.44a6.37,6.37,0,0,0-.2,1.67,15,15,0,0,0,.68,5.24l.17.31.2-.3a5.12,5.12,0,0,0,.93-2.8,7.31,7.31,0,0,0-1.4-4.18l-.12-.19Z"/><path class="cls-1" d="M149.12,20.24l-.25.32a17.85,17.85,0,0,0-2.12,6.69s0,.29,0,.3l.06.37.27-.17a5.22,5.22,0,0,0,2.53-4.47,8.13,8.13,0,0,0-.4-2.65l-.06-.2Z"/><path class="cls-1" d="M152.5,26.32l-.45.08c-1.67.27-6.37,2.92-7.1,4l-.18.27.32.06c3.88.68,5.95-2,7.17-4l.12-.2Z"/><path class="cls-1" d="M133.79,32.33a15.32,15.32,0,0,0-4.74,3.86l-.1.14.12.14a2.09,2.09,0,0,0,.61.43l.14,0,.09-.11c1.72-2.14,4.67-4.76,7.83-5.09a4,4,0,0,0,1.58,1.09c1.79.6,4.88.3,7.35-.71l.59-.24-.61-.16c-5.86-1.59-10.33-.63-12.86.61"/><path class="cls-1" d="M146.55,25l-.38.2c-1.25.86-4.85,3.93-5.11,5l-.06.24.24,0c3.93.34,4.87-2.71,5.24-5l0-.21Z"/><path class="cls-1" d="M46.19,1.05h5V5.57h-5Zm.4,9.65h4.17v22H46.59Z"/><path class="cls-1" d="M15.12,10.72h4.17v22H15.2V29.5h-.08a8.35,8.35,0,0,1-7.55,3.91C3,33.41.33,29.9.33,25.47V10.72H4.5v13c0,3.81.88,6.62,4.87,6.62a5.22,5.22,0,0,0,4.91-3.16A16.33,16.33,0,0,0,15.12,22Z"/><path class="cls-1" d="M27.61,14h.09a7.63,7.63,0,0,1,6.67-3.91c1.53,0,8.33.4,8.33,7.46V32.75H38.54V18.88c0-3.64-1.54-5.61-5-5.61a5.75,5.75,0,0,0-4,1.62c-.61.61-1.75,1.58-1.75,5.88v12H23.53v-22h4.08Z"/><path class="cls-1" d="M68.21,17.79C68,15,66.69,13.12,63.72,13.12c-4,0-5.49,3.44-5.49,8.59s1.53,8.59,5.49,8.59c2.75,0,4.45-1.78,4.66-4.93h4.15c-.35,4.93-4,7.94-8.85,7.94-7,0-9.81-5-9.81-11.42S57.09,10.11,64,10.11c4.62,0,8.11,2.93,8.32,7.68Z"/><path class="cls-1" d="M78.76,22.49c-.31,3.84,1.26,7.81,5.49,7.81,3.22,0,4.84-1.26,5.31-4.45h4.37c-.66,5-4.5,7.46-9.72,7.46-7,0-9.82-5-9.82-11.42s3.23-11.78,10.16-11.78c6.54.14,9.63,4.27,9.63,10.34v2Zm11.07-2.87c.09-3.66-1.57-6.5-5.58-6.5-3.45,0-5.49,2.92-5.49,6.5Z"/><path class="cls-1" d="M98.88,32.65v-19H95.11V10.76h3.77V6.06C99,1.26,102.63,0,105.72,0a17.87,17.87,0,0,1,3,.43V3.88c-.7,0-1.4-.14-2.1-.14-2.35,0-3.7.62-3.57,3v4h5.06v2.89H103v19Z"/><rect class="cls-1" x="0.24" y="47.84" width="153.93" height="0.84"/><path class="cls-1" d="M2.8,77.82V65.44H0V63.92H2.8V61c0-2.38,1-3.46,3.35-3.46a7.75,7.75,0,0,1,1.58.31v1.33a6.11,6.11,0,0,0-1-.11c-2.27,0-2.32,1.13-2.24,3.13v1.77H7.62v1.52H4.46V77.82Z"/><path class="cls-1" d="M21.2,70.87c0,3.65-2.05,7.37-6.48,7.37s-6.48-3.72-6.48-7.37,2-7.37,6.48-7.37,6.48,3.71,6.48,7.37M14.72,65C11.37,65,10,68.29,10,70.87s1.33,5.84,4.68,5.84,4.68-3.27,4.68-5.84S18.07,65,14.72,65"/><path class="cls-1" d="M25.28,77.82H23.62V67.05c0-1.08-.08-2.19-.14-3.13H25.2l.08,2h.06a3.59,3.59,0,0,1,3.13-2.47c.55,0,1.1,0,1.66,0v1.61c-.33,0-.69-.11-1-.11-2.46,0-3.76,1.77-3.82,4.43Z"/><path class="cls-1" d="M38.19,71.26c.05,3,1.41,5.45,4.81,5.45a4.14,4.14,0,0,0,4-3.32h1.74c-.85,3.32-2.93,4.85-6.28,4.85-4.16,0-6.09-3.58-6.09-7.37s2.07-7.37,6.2-7.37c4.65,0,6.34,3.41,6.34,7.76Zm8.94-1.53c-.19-2.68-1.63-4.7-4.51-4.7-2.72,0-4.16,2.27-4.38,4.7Z"/><polygon class="cls-1" points="51.17 63.92 55.97 75.52 60.59 63.92 62.42 63.92 56.91 77.82 55.02 77.82 49.35 63.92 51.17 63.92"/><path class="cls-1" d="M64.56,71.26c.06,3,1.42,5.45,4.82,5.45a4.14,4.14,0,0,0,4-3.32h1.74c-.86,3.32-2.93,4.85-6.28,4.85-4.16,0-6.1-3.58-6.1-7.37S64.84,63.5,69,63.5c4.65,0,6.34,3.41,6.34,7.76Zm9-1.53C73.31,67.05,71.87,65,69,65c-2.71,0-4.15,2.27-4.37,4.7Z"/><path class="cls-1" d="M79.56,77.82H77.89V67.05c0-1.08-.08-2.19-.13-3.13h1.71l.09,2h0a3.6,3.6,0,0,1,3.13-2.47c.56,0,1.11,0,1.66,0v1.61c-.33,0-.69-.11-1-.11-2.47,0-3.77,1.77-3.82,4.43Z"/><polygon class="cls-1" points="87.97 63.92 92.66 75.55 97.31 63.92 99.11 63.92 91.44 83.14 89.61 83.14 91.71 77.82 85.95 63.92 87.97 63.92"/><path class="cls-1" d="M115,68.18c-.14-2.13-1.5-3.15-3.8-3.15-2.54,0-4.12,2.65-4.12,5.81s1.58,5.87,4.12,5.87a3.52,3.52,0,0,0,3.8-3.24h1.8c-.44,3.19-2.27,4.77-5.43,4.77-4.15,0-6.09-3.58-6.09-7.37s2.08-7.37,6.2-7.37c2.85,0,5.18,1.72,5.32,4.68Z"/><path class="cls-1" d="M120.73,66h.06a4.78,4.78,0,0,1,4.34-2.52c4.55,0,4.91,4,4.91,5.62v8.7h-1.67v-9c0-2.41-1.38-3.82-3.65-3.82-2.74,0-4,2.29-4,4.79v8h-1.66v-20h1.66Z"/><path class="cls-1" d="M134.63,59.9h-1.94V57.83h1.94Zm-.14,17.92h-1.66V63.92h1.66Z"/><rect class="cls-1" x="137.76" y="57.82" width="1.66" height="20"/><path class="cls-1" d="M152.5,75.77l-.05-.11a5.67,5.67,0,0,1-4.77,2.58c-4.12,0-5.7-3.94-5.7-7.43s1.58-7.31,5.7-7.31A5.57,5.57,0,0,1,152.45,66l.05,0V57.82h1.66V74.69c0,1.08.09,2.19.14,3.13h-1.71ZM148,65c-3.16,0-4.18,2.93-4.18,5.59s.75,6.09,3.93,6.09c3.63,0,4.74-3,4.74-6.17,0-2.83-1.25-5.51-4.49-5.51"/></g></g></svg>