<svg xmlns="http://www.w3.org/2000/svg" viewBox="0 0 50.59 26.87"><defs><style>.cls-1{fill:#00aced;}</style></defs><g id="Layer_2" data-name="Layer 2"><g id="Layer_1-2" data-name="Layer 1"><path class="cls-1" d="M46.4,8.33a1,1,0,0,1-.61-1c0-.18.16-.1.24-.1a1.82,1.82,0,0,0,1.38-.67,2.09,2.09,0,0,0-.14-2.87,1.71,1.71,0,0,0-2.74.07,1,1,0,0,1-.78.3c-.44,0-.16.33-.16.4s-.07.12-.11.11-.09.18-.09.24a.11.11,0,0,1-.09.11c-.19,0-.14.16-.13.21a.17.17,0,0,1-.07.15.42.42,0,0,0-.13.29c0,.2.18.34.49.57a.77.77,0,0,1,.35.6,1.71,1.71,0,0,0,.09.58.39.39,0,0,1-.35.58A6.36,6.36,0,0,0,42,8.36a1.73,1.73,0,0,1-1,.07,5.45,5.45,0,0,1-.46-.38.71.71,0,0,1,.15-.58.84.84,0,0,0,.57.17,8.5,8.5,0,0,0,1-.14.27.27,0,0,1,.2,0,.53.53,0,0,0,.79-.39c.15-.52-.2-.37-.25-.35s-.1,0-.08,0,0-.12-.09-.12-.33.14-.4.19a.13.13,0,0,1-.14,0c-.19-.09-.77,0-.94-.27A11.66,11.66,0,0,0,41.13,5a.23.23,0,0,1,0-.21c.15-.22.55,0,.76,0a.4.4,0,0,0,.38-.2c.07-.09.12,0,.15-.06s0-.1,0-.13,0,0,.08-.06,0-.12,0-.15.24,0,.14-.27a.4.4,0,0,1,.1-.39A1,1,0,0,0,42.55,2,1.49,1.49,0,0,0,40.37,2a1.76,1.76,0,0,0-.22,1.65.45.45,0,0,1-.29.51,4.32,4.32,0,0,0-.73.51A4.51,4.51,0,0,1,42,.53a1.88,1.88,0,0,0,.24.25c-.19.14-.6.51-.6.51l.11,0,.11,0s.36-.31.53-.43a2.3,2.3,0,0,0,.43.25l-.29.53.09.06a.16.16,0,0,1,.07.05L43,1.23a2,2,0,0,0,.59.11v.78l-.51,0H43l0,.06a.83.83,0,0,1,.07.13h0l.44,0V3.73h.2V3.4c.28,0,.52,0,.81-.06h0l.25-.22H44.7c-.3,0-.57.06-.82.07h-.12v-.9a4.3,4.3,0,0,0,1.06-.15c.09.24.27.8.27.8l.18,0s-.17-.57-.27-.8a4.52,4.52,0,0,0,.85-.36,5,5,0,0,1,.56.87L46,2.77a1.79,1.79,0,0,1,.35.07l.12,0,0,.12L46.8,3l0-.07-.11-.25a6.25,6.25,0,0,0,.79-.46A4.52,4.52,0,0,1,46.4,8.33M43.17.23a4.78,4.78,0,0,0-.8.44,1.45,1.45,0,0,1-.21-.22,4.78,4.78,0,0,1,1-.22M42.89,1a2.12,2.12,0,0,1-.36-.21,4.92,4.92,0,0,1,.82-.43,5.75,5.75,0,0,0-.46.64m.67-.6v.75a2,2,0,0,1-.48-.09c.14-.22.31-.44.48-.66m.2.94a2,2,0,0,0,.59-.11c.14.24.27.5.39.75a4.07,4.07,0,0,1-1,.14Zm0-.95a8.12,8.12,0,0,1,.48.67,1.94,1.94,0,0,1-.48.09Zm1,.4a2.12,2.12,0,0,1-.36.21C44.29.78,44.14.57,44,.36a4.83,4.83,0,0,1,.81.43m.37-.33A2.08,2.08,0,0,1,45,.67a4.69,4.69,0,0,0-.79-.44,4.16,4.16,0,0,1,1,.23m.56,1.14a3.89,3.89,0,0,1-.79.33,8,8,0,0,0-.4-.77A2.3,2.3,0,0,0,45,.91a4.52,4.52,0,0,1,.76.69M45.36.53a4.39,4.39,0,0,1,1,.6,3.25,3.25,0,0,1-.52.37,5.25,5.25,0,0,0-.77-.72l.24-.25m2,1.56a5.19,5.19,0,0,1-.76.44A4.52,4.52,0,0,0,46,1.65a5.44,5.44,0,0,0,.55-.39,4.34,4.34,0,0,1,.77.83M43.66,0a4.72,4.72,0,1,0,4.72,4.72A4.72,4.72,0,0,0,43.66,0"/><path class="cls-1" d="M38.51,1.26l-.07.07a2,2,0,0,0-.81,1.6V3l0,.14L37.76,3a3,3,0,0,0,.79-1.65l0-.19Z"/><path class="cls-1" d="M37.23,2.49l0,.08a2.8,2.8,0,0,0-.17.7,2.13,2.13,0,0,0,.36,1.63l0,.06,0,.06.06-.3a6,6,0,0,0-.21-2.15l-.07-.17Z"/><path class="cls-1" d="M36.76,4.41v.08a2.48,2.48,0,0,0,1,2.28l.11.07V6.71a5.75,5.75,0,0,0-.93-2.26l-.11-.13Z"/><path class="cls-1" d="M36.92,6.51l0,.08a3,3,0,0,0,1.77,2.09l.14.05-.05-.14A6.23,6.23,0,0,0,37,6.52l-.13-.09Z"/><path class="cls-1" d="M38.91,2.28l-.08.05a1.83,1.83,0,0,0-1,1.67v.15l.11-.09a4.43,4.43,0,0,0,1-1.65L39,2.23Z"/><path class="cls-1" d="M38.48,3.75l-.06.06a2.22,2.22,0,0,0-.74,1.63,1.19,1.19,0,0,0,.08.4l0,.12.08-.11a4.6,4.6,0,0,0,.66-2V3.7Z"/><path class="cls-1" d="M38.51,5.15l0,.06A2.39,2.39,0,0,0,38,6.57a1.63,1.63,0,0,0,.31.91l.06.1.06-.1a5.15,5.15,0,0,0,.22-1.71,2.37,2.37,0,0,0-.07-.54l0-.14Z"/><path class="cls-1" d="M38.87,6.64l0,.07a2.61,2.61,0,0,0-.13.86A1.7,1.7,0,0,0,39.54,9l.09.06,0-.12v-.1A5.76,5.76,0,0,0,39,6.69l-.08-.11Z"/><path class="cls-1" d="M37.83,8.62l0,.07A2.2,2.2,0,0,0,40.2,10l.1,0-.06-.09a6.2,6.2,0,0,0-2.3-1.3l-.15,0Z"/><path class="cls-1" d="M39.69,10.31h0l-.2,0,.19.08a3.87,3.87,0,0,0,2.39.23,1.3,1.3,0,0,0,.52-.35A4.24,4.24,0,0,1,45.13,12l0,0,.05,0a.56.56,0,0,0,.2-.14l0,0,0,0a5,5,0,0,0-1.54-1.26,6,6,0,0,0-4.18-.2"/><path class="cls-1" d="M39.74,8.18v.07c.12.75.42,1.74,1.7,1.63h.08l0-.08a6.58,6.58,0,0,0-1.66-1.62l-.13-.07Z"/><path class="cls-1" d="M48.75,1.2l0,.19A3,3,0,0,0,49.58,3l.09.08,0-.14v0a2,2,0,0,0-.81-1.6l-.07-.07Z"/><path class="cls-1" d="M50.08,2.4,50,2.57a6.21,6.21,0,0,0-.22,2.15l.07.3,0-.06L50,4.9a2.17,2.17,0,0,0,.36-1.63,2.8,2.8,0,0,0-.17-.7l0-.08Z"/><path class="cls-1" d="M50.57,4.32l-.11.13a6.07,6.07,0,0,0-.93,2.26v.13l.11-.07a2.5,2.5,0,0,0,1-2.28V4.32Z"/><path class="cls-1" d="M50.43,6.43l-.14.09a6.19,6.19,0,0,0-1.75,2.07l0,.14.14-.05A3,3,0,0,0,50.4,6.59l0-.08Z"/><path class="cls-1" d="M48.38,2.21l.06.18a4.24,4.24,0,0,0,1,1.67l.1.09V4a1.83,1.83,0,0,0-1-1.69l-.08-.05Z"/><path class="cls-1" d="M48.8,3.7v.15a4.47,4.47,0,0,0,.66,2l.07.11,0-.12a1.57,1.57,0,0,0,.08-.4,2.26,2.26,0,0,0-.75-1.63l0-.06Z"/><path class="cls-1" d="M48.79,5.09l0,.14a2.37,2.37,0,0,0-.07.54,4.9,4.9,0,0,0,.22,1.71l.06.1.06-.1a1.62,1.62,0,0,0,.3-.91,2.37,2.37,0,0,0-.45-1.36l0-.06Z"/><path class="cls-1" d="M48.45,6.58l-.08.11a5.58,5.58,0,0,0-.69,2.17V9l0,.12L47.8,9a1.72,1.72,0,0,0,.82-1.45,2.61,2.61,0,0,0-.13-.86l0-.07Z"/><path class="cls-1" d="M49.55,8.56l-.15,0a6.33,6.33,0,0,0-2.31,1.3L47,10l.11,0a2.21,2.21,0,0,0,2.33-1.3l0-.07Z"/><path class="cls-1" d="M43.46,10.51a5,5,0,0,0-1.53,1.26l0,0,0,0a.75.75,0,0,0,.2.15h0l0,0a4.28,4.28,0,0,1,2.55-1.65,1.2,1.2,0,0,0,.51.35,3.86,3.86,0,0,0,2.39-.23l.19-.07-.2-.06a6.07,6.07,0,0,0-4.18.2"/><path class="cls-1" d="M47.61,8.11l-.12.07c-.41.28-1.58,1.27-1.66,1.62l0,.08h.08c1.27.11,1.58-.88,1.7-1.63V8.11Z"/><path class="cls-1" d="M15.12,3.48h1.35v7.16H15.12ZM15,.34H16.6V1.81H15Z"/><path class="cls-1" d="M4.89,3.49H6.24v7.16H4.91V9.59h0a2.73,2.73,0,0,1-2.46,1.27A2.34,2.34,0,0,1,.08,8.28V3.49H1.43V7.72C1.43,9,1.72,9.88,3,9.88a1.7,1.7,0,0,0,1.59-1,5.28,5.28,0,0,0,.28-1.68Z"/><path class="cls-1" d="M9,4.54H9a2.47,2.47,0,0,1,2.16-1.27A2.46,2.46,0,0,1,13.85,5.7v5H12.5V6.14c0-1.19-.5-1.83-1.64-1.83a1.87,1.87,0,0,0-1.31.53C9.35,5,9,5.35,9,6.75v3.9H7.62V3.49H9Z"/><path class="cls-1" d="M22.15,5.78c-.07-.89-.5-1.51-1.46-1.51-1.29,0-1.79,1.11-1.79,2.79s.5,2.79,1.79,2.79c.89,0,1.44-.58,1.51-1.6h1.35a2.7,2.7,0,0,1-2.88,2.58c-2.28,0-3.19-1.62-3.19-3.72s1.05-3.82,3.31-3.82a2.53,2.53,0,0,1,2.7,2.49Z"/><path class="cls-1" d="M29.17,6.38c0-1.19-.51-2.11-1.81-2.11a1.88,1.88,0,0,0-1.79,2.11Zm-3.6.93c-.09,1.25.42,2.54,1.79,2.54A1.5,1.5,0,0,0,29.09,8.4h1.42c-.22,1.62-1.46,2.43-3.16,2.43-2.29,0-3.19-1.62-3.19-3.72s1.05-3.82,3.3-3.82,3.13,1.39,3.13,3.36v.66Z"/><path class="cls-1" d="M32.12,10.62V4.44H30.89V3.5h1.23V2a2,2,0,0,1,2.22-2,5.4,5.4,0,0,1,1,.14V1.26c-.23,0-.46,0-.69,0-.76,0-1.2.2-1.16,1V3.5h1.65v.94H33.46v6.18Z"/><rect class="cls-1" x="0.05" y="15.55" width="50.04" height="0.27"/><path class="cls-1" d="M2.07,24.84c1,0,1.26-1.11,1.26-1.93S3,21.14,2,21.14.57,22,.57,22.89s.35,1.95,1.5,1.95m-1.5,2H0V21.78c0-.34,0-.69,0-1H.54l0,.65,0,0a1.75,1.75,0,0,1,1.51-.8c1.3,0,1.8,1.18,1.8,2.32s-.5,2.34-1.78,2.34a1.8,1.8,0,0,1-1.53-.81h0Z"/><path class="cls-1" d="M5.93,24.84c1.15,0,1.37-.94,1.31-1.86-.74,0-2.3-.12-2.3,1a.88.88,0,0,0,1,.87m1.31-2.75c0-.72-.42-.95-1-.95s-1,.17-1.08.77H4.56a1.45,1.45,0,0,1,1.65-1.25c1,0,1.58.45,1.56,1.46V24.2c0,.34,0,.69,0,1H7.27l0-.65h0l0,.07a1.66,1.66,0,0,1-1.38.71,1.35,1.35,0,0,1-.57-2.62,5.91,5.91,0,0,1,2-.21Z"/><path class="cls-1" d="M9.31,25.19H8.79V21.78c0-.34,0-.69,0-1h.55l0,.65h0a1.15,1.15,0,0,1,1-.78,4.69,4.69,0,0,1,.53,0v.51c-.11,0-.22,0-.33,0-.78,0-1.19.57-1.21,1.41Z"/><path class="cls-1" d="M12.57,24.84c1.14,0,1.36-.94,1.31-1.86-.75,0-2.3-.12-2.3,1a.87.87,0,0,0,1,.87m1.31-2.75c-.05-.72-.42-.95-1-.95s-1,.17-1.08.77H11.2a1.45,1.45,0,0,1,1.65-1.25c1,0,1.57.45,1.56,1.46V24.2c0,.34,0,.69,0,1h-.54l0-.65h0l0,.07a1.66,1.66,0,0,1-1.37.71,1.36,1.36,0,0,1-.58-2.62,6,6,0,0,1,2-.21Z"/><path class="cls-1" d="M19.93,22.14c0-.67-.47-1-1.2-1s-1.3.85-1.3,1.84.5,1.86,1.3,1.86a1.1,1.1,0,0,0,1.2-1h.57a1.56,1.56,0,0,1-1.71,1.5c-1.32,0-1.93-1.13-1.93-2.33a2.08,2.08,0,0,1,2-2.33,1.56,1.56,0,0,1,1.68,1.48Z"/><path class="cls-1" d="M22.53,24.84c1.15,0,1.37-.94,1.32-1.86-.75,0-2.31-.12-2.31,1a.88.88,0,0,0,1,.87m1.32-2.75c-.05-.72-.42-.95-1-.95s-1,.17-1.08.77h-.56a1.44,1.44,0,0,1,1.64-1.25c1,0,1.58.45,1.56,1.46V24.2c0,.34,0,.69.05,1h-.55v-.65h0l0,.07a1.66,1.66,0,0,1-1.37.71,1.35,1.35,0,0,1-.58-2.62,6,6,0,0,1,2-.21Z"/><path class="cls-1" d="M27,21.14c-1,0-1.32.93-1.32,1.77s.23,1.93,1.24,1.93,1.5-.95,1.5-1.95-.39-1.75-1.42-1.75m1.44,3.4,0,0a1.79,1.79,0,0,1-1.51.81c-1.3,0-1.8-1.24-1.8-2.34s.5-2.32,1.8-2.32a1.76,1.76,0,0,1,1.51.8l0,0V18.87H29V24.2c0,.34,0,.69.05,1h-.55Z"/><path class="cls-1" d="M31.25,24.84c1.15,0,1.37-.94,1.32-1.86-.75,0-2.31-.12-2.31,1a.88.88,0,0,0,1,.87m1.32-2.75a.9.9,0,0,0-1.05-.95c-.55,0-1,.17-1.07.77h-.56a1.44,1.44,0,0,1,1.64-1.25c1,0,1.58.45,1.56,1.46V24.2c0,.34,0,.69,0,1h-.55v-.65h0l0,.07a1.66,1.66,0,0,1-1.37.71,1.35,1.35,0,0,1-.58-2.62,6,6,0,0,1,2-.21Z"/><path class="cls-1" d="M36.37,25.19h-.53V21.78c0-.34,0-.69,0-1h.54l0,.65,0,0a1.51,1.51,0,0,1,1.37-.8,1.55,1.55,0,0,1,1.55,1.78v2.75h-.52V22.35a1.09,1.09,0,0,0-1.16-1.21c-.87,0-1.26.73-1.26,1.52Z"/><path class="cls-1" d="M40.86,25.19h-.52v-4.4h.52Zm0-5.67h-.62v-.65h.62Z"/><path class="cls-1" d="M44.85,19.1a.85.85,0,0,1-.8.75,1,1,0,0,1-.39-.1,1.64,1.64,0,0,0-.48-.09.4.4,0,0,0-.41.26h-.33a.79.79,0,0,1,.94-.7,2.59,2.59,0,0,1,.35.09,1.79,1.79,0,0,0,.35.08.43.43,0,0,0,.43-.29Zm-2.42,6.09H41.9V21.78c0-.34,0-.68,0-1h.54l0,.65,0,0a1.49,1.49,0,0,1,1.37-.8,1.55,1.55,0,0,1,1.55,1.78v2.75h-.52V22.35a1.08,1.08,0,0,0-1.16-1.21c-.87,0-1.26.73-1.26,1.52Z"/><path class="cls-1" d="M48.19,21.14c-1.06,0-1.48,1-1.48,1.85s.42,1.85,1.48,1.85,1.48-1,1.48-1.85-.42-1.85-1.48-1.85M50.24,23a2.07,2.07,0,1,1-4.1,0,2.07,2.07,0,1,1,4.1,0"/></g></g></svg>