<svg xmlns="http://www.w3.org/2000/svg" viewBox="0 0 885.26 96.35"><defs><style>.cls-1{fill:#00aced;}</style></defs><g id="Layer_2" data-name="Layer 2"><g id="Layer_1-2" data-name="Layer 1"><path class="cls-1" d="M253.42,59.54a5.16,5.16,0,0,1-3.32-5.46c0-1,.81-.52,1.25-.52a9.93,9.93,0,0,0,7.38-3.69,11.58,11.58,0,0,0-.37-15.71,9.43,9.43,0,0,0-13.27-1.48,9.07,9.07,0,0,0-1.49,1.48,5.38,5.38,0,0,1-4.28,1.62c-2.36,0-.88,1.85-.88,2.21s-.37.67-.59.59-.44,1-.44,1.41a.51.51,0,0,1-.52.51c-1,0-.74.89-.74,1.18a.8.8,0,0,1-.37.81,2.44,2.44,0,0,0-.73,1.63c0,1.1,1,1.84,2.73,3.1a4.26,4.26,0,0,1,1.91,3.24,9.43,9.43,0,0,0,.45,3.17,2.07,2.07,0,0,1-1.92,3.18A33.72,33.72,0,0,0,230,59.39a10,10,0,0,1-5.32,0,21.46,21.46,0,0,1-3.17-1.33,3.9,3.9,0,0,1,.81-3.17,5.06,5.06,0,0,0,3.18.88,47.45,47.45,0,0,0,5.16-.73,1.29,1.29,0,0,1,1.18,0,3,3,0,0,0,4-1,3.08,3.08,0,0,0,.39-1.1C237,50,235.12,50.83,234.9,51s-.59,0-.44,0,0-.67-.52-.67a5.16,5.16,0,0,0-2.14,1c-.3.29-.66,0-.81,0s-4.21,0-5.17-1.48a63.29,63.29,0,0,0-1.25-8.56,1.25,1.25,0,0,1,0-1.1c.81-1.18,3,0,4.13,0a2.24,2.24,0,0,0,2.07-1.11c0-.44.66,0,.88-.37s0-.44,0-.66,0,0,.44,0,0-.67,0-.89,1.33,0,.74-1.47a2.37,2.37,0,0,1,.59-2.14,5.62,5.62,0,0,0-.59-7.91,5.94,5.94,0,0,0-.81-.58,8,8,0,0,0-11.36-.51c-.18.16-.35.33-.52.51A9.69,9.69,0,0,0,219,34.16a2.66,2.66,0,0,1-1.62,2.8,26.46,26.46,0,0,0-4,2.73,24.64,24.64,0,0,1,15.49-22.13l1.33,1.4c-1,.74-3.25,2.73-3.25,2.73h1.18L231,19.33a11.22,11.22,0,0,0,2.36,1.4c-.44.74-1.55,2.88-1.55,2.88h.52l1.69-3.1a9.84,9.84,0,0,0,3.18.59v4.28H234v.37l.45.66H237v8h1.11V32.61h4.43l1.4-1.26H238V26.63a21.52,21.52,0,0,0,5.75-.81c.52,1.26,1.55,4.35,1.55,4.35h1s-1-3-1.48-4.35a26.14,26.14,0,0,0,4.65-2,25.46,25.46,0,0,1,3,4.79,17.06,17.06,0,0,1-1.48.89h2.58a3.64,3.64,0,0,1,0,.66l1.41.59h0s-.45-1.1-.59-1.32c1.47-.74,2.95-1.63,4.35-2.51A24.79,24.79,0,0,1,253,60.13m-17.7-44.27a31.63,31.63,0,0,0-4.36,2.36,8.17,8.17,0,0,1-1.1-1.1,20.08,20.08,0,0,1,5.46-1.26m-1.48,4.21a8.44,8.44,0,0,1-2-1.11,21.16,21.16,0,0,1,4.43-2.36,28.86,28.86,0,0,0-2.44,3.47m3.62-3.25v4.06a15.07,15.07,0,0,1-2.59-.44,25.64,25.64,0,0,1,2.59-3.62m1.1,5.09a9.73,9.73,0,0,0,3.25-.59,43.64,43.64,0,0,1,2.14,4.13,26.5,26.5,0,0,1-5.39.74Zm0-5.16a33.19,33.19,0,0,1,2.66,3.69,17,17,0,0,1-2.66.44ZM244.19,19a13.32,13.32,0,0,1-2,1.11,35.57,35.57,0,0,0-2.51-3.47,21.69,21.69,0,0,1,4.5,2.36m2-1.84-1.11,1.1a31.52,31.52,0,0,0-4.35-2.36,23.4,23.4,0,0,1,5.46,1.26m3,6.19a22.23,22.23,0,0,1-4.28,1.85A39.21,39.21,0,0,0,242.72,21a9.55,9.55,0,0,0,2.36-1.4,22.36,22.36,0,0,1,4.13,3.76m-2-5.83a23.38,23.38,0,0,1,5.83,3.32A18.68,18.68,0,0,1,251,22.13a26.39,26.39,0,0,0-4.2-3.91,11.9,11.9,0,0,0,1.25-1.4m10.33,8.63a40.05,40.05,0,0,1-4.21,2.44A20.6,20.6,0,0,0,251,23a18.83,18.83,0,0,0,3-2.14,25.39,25.39,0,0,1,4.28,4.57M238.44,14a25.82,25.82,0,1,0,25.82,25.82A25.82,25.82,0,0,0,238.44,14"/><path class="cls-1" d="M210.26,20.88h-.37a11,11,0,0,0-4.43,8.78h0v.74l.44-.45a15.93,15.93,0,0,0,4.36-9v-.07Z"/><path class="cls-1" d="M203.25,27.59v.52a13.25,13.25,0,0,0-1,3.76,12,12,0,0,0,2,8.93h0V39.1A31.7,31.7,0,0,0,203.77,28l-.37-.88Z"/><path class="cls-1" d="M200.67,38.07v.51a13.5,13.5,0,0,0,5.16,12.47l.89.59v-.73a32.38,32.38,0,0,0-5.09-12.33l-.59-.73Z"/><path class="cls-1" d="M201.55,49.58V50a16.32,16.32,0,0,0,9.67,11.44H212v-.67a32.47,32.47,0,0,0-9.59-11.36l-.73-.52Z"/><path class="cls-1" d="M212.47,26.49H212a10,10,0,0,0-5.76,9.14v1.26l.45-.67a24.11,24.11,0,0,0,5.75-9.07v-.66Z"/><path class="cls-1" d="M210.11,34.53h0A12.17,12.17,0,0,0,206,43.45a12,12,0,0,0,.44,2.14v.74l.3-.29a25.42,25.42,0,0,0,3.54-11v-.81Z"/><path class="cls-1" d="M210.26,42.13h0a13.38,13.38,0,0,0-2.51,7.37,8.84,8.84,0,0,0,1.7,5l.36.51v-.51a29,29,0,0,0,1.19-9.3,11,11,0,0,0-.37-3v-.74Z"/><path class="cls-1" d="M212.25,50.31h0a13.13,13.13,0,0,0-.66,4.73A9.14,9.14,0,0,0,216,62.93h.52v-.52a31.49,31.49,0,0,0-3.76-11.87l-.45-.59Z"/><path class="cls-1" d="M206.72,61.16h0a12.09,12.09,0,0,0,12.76,7.38h.59V68a33.06,33.06,0,0,0-12.54-7.38h-.81Z"/><path class="cls-1" d="M216.75,70.38h-1.11l1,.44a22.1,22.1,0,0,0,13,1.26,8.23,8.23,0,0,0,2.81-1.92,23.26,23.26,0,0,1,13.94,9h0a3.06,3.06,0,0,0,1.11-.81h0a28.17,28.17,0,0,0-8.41-6.86,32.88,32.88,0,0,0-22.87-1.11"/><path class="cls-1" d="M217,59h0c.66,4.13,2.29,9.52,9.3,8.93h.44V67.5c-.44-1.91-6.86-7.37-9.08-8.85H217Z"/><path class="cls-1" d="M266.25,20.51v1.11a16.52,16.52,0,0,0,4.36,9l.51.44v-.74h0a11.39,11.39,0,0,0-4.42-8.78h-.45Z"/><path class="cls-1" d="M273.48,27.15V28a33.25,33.25,0,0,0-1.18,11.74v1.69h0a11.55,11.55,0,0,0,1.92-8.92,17.37,17.37,0,0,0-.88-3.77v-.51Z"/><path class="cls-1" d="M276.21,37.63l-.59.73a32.4,32.4,0,0,0-5.09,12.32v1h.59a13.66,13.66,0,0,0,5.17-12.47V37.63Z"/><path class="cls-1" d="M275.47,49.13l-.81.52A34.33,34.33,0,0,0,265.07,61v.67h.74a16.14,16.14,0,0,0,9.66-11.44V49.13Z"/><path class="cls-1" d="M264.26,26.12v1a24.51,24.51,0,0,0,5.53,9.14l.52.45v-.82a10,10,0,0,0-5.61-9.22h0Z"/><path class="cls-1" d="M266.55,34.23V35a26.53,26.53,0,0,0,3.61,11l.45.59v-.74a5.85,5.85,0,0,0,.44-2.14A12.17,12.17,0,0,0,267,34.82h0Z"/><path class="cls-1" d="M266.47,41.83v.74a10.91,10.91,0,0,0,0,3,25.69,25.69,0,0,0,1.18,9.3v.52l.37-.52A8.79,8.79,0,0,0,269.65,50a12.77,12.77,0,0,0-2.44-7.38h0Z"/><path class="cls-1" d="M264.63,50l-.44.59a31.69,31.69,0,0,0-3.77,11.87v1.18h.45a9.22,9.22,0,0,0,4.87-8.18,15.16,15.16,0,0,0-.67-4.73h0Z"/><path class="cls-1" d="M270.61,60.79h-.82a33.83,33.83,0,0,0-12.61,7.38v.52h.59a12,12,0,0,0,12.69-7.38h0Z"/><path class="cls-1" d="M237.33,71.49a26.33,26.33,0,0,0-8.41,6.86h0a3.44,3.44,0,0,0,1,.81h0a22.84,22.84,0,0,1,14.38-8.7,7.85,7.85,0,0,0,2.88,1.91,22.05,22.05,0,0,0,13.06-1.25l1-.44H260.2a32.94,32.94,0,0,0-22.87,1.1"/><path class="cls-1" d="M260.06,58.36h-.67a36.14,36.14,0,0,0-9.15,8.85v.44H251c6.94.59,8.63-4.79,9.3-8.92V58Z"/><path class="cls-1" d="M82.33,33.05h7.38v39.1H82.33Zm-.66-17.19h8.78v8H81.67Z"/><path class="cls-1" d="M26.41,33.05h7.38V72.23H26.41V66.4h0A14.79,14.79,0,0,1,13,73.78,12.86,12.86,0,0,1,.14,59v-26H7.52V56.22C7.52,63,9.07,68,16.15,68a9.22,9.22,0,0,0,8.71-5.61,29.12,29.12,0,0,0,1.47-9.22Z"/><path class="cls-1" d="M48.61,38.81h0a13.74,13.74,0,0,1,12-6.94,13.42,13.42,0,0,1,14.69,12c0,.42.06.83.07,1.25V72.23H68V47.59c.07-6.5-2.73-10-8.86-10a9.8,9.8,0,0,0-7.37,2.87c-1.11,1-3.18,2.81-3.18,10.41V72.23H41.24V33.05h7.37Z"/><path class="cls-1" d="M120.77,45.59c-.37-4.87-2.66-8.26-8-8.26-7,0-9.74,6.12-9.74,15.27s2.73,15.27,9.74,15.27c4.87,0,7.89-3.17,8.34-8.78h7.37A14.75,14.75,0,0,1,113.14,73.2h-.34c-12.47,0-17.41-8.78-17.41-20.29s5.75-21,18.07-21a13.88,13.88,0,0,1,14.73,13q0,.35,0,.69Z"/><path class="cls-1" d="M159.2,48.91c0-6.56-2.8-11.58-9.88-11.58a10.33,10.33,0,0,0-9.88,10.76,7.56,7.56,0,0,0,.07.82ZM139.51,54c-.52,6.79,2.28,13.87,9.81,13.87a8.25,8.25,0,0,0,9.36-7c0-.3.07-.6.08-.9h7.75a15.43,15.43,0,0,1-17.27,13.21c-12.46,0-17.48-8.78-17.48-20.29s5.75-21,18.08-21A16.39,16.39,0,0,1,167,50.39V54Z"/><path class="cls-1" d="M175.29,72.08V38.29h-6.72V33.13h6.72V24.79a10.69,10.69,0,0,1,10.52-10.87,10.16,10.16,0,0,1,1.65.1,31.71,31.71,0,0,1,5.31.74v6.12H189c-4.13,0-6.57,1.11-6.34,5.38v7.38H192v5.17h-9.29V72.08Z"/><path class="cls-1" d="M338.92,68.91c8.93,0,11.22-9.89,11.22-17.27s-3.25-15.42-11.88-15.42-12.54,7.38-12.54,15.42,3.09,17.27,13.2,17.27m-13.2,17.92h-4.65V33.13h4.79v5.75h0a15.58,15.58,0,0,1,13.36-7.38c11.51,0,15.93,10.4,15.93,20.44s-4.42,21.17-15.64,21.17a15.84,15.84,0,0,1-13.57-7.38h0Z"/><path class="cls-1" d="M373,68.91c10.18,0,12.1-8.41,11.65-16.53-6.64,0-20.36-1-20.36,8.78A7.37,7.37,0,0,0,371.17,69a7.58,7.58,0,0,0,1.84-.1m11.65-24.64a7.89,7.89,0,0,0-7.31-8.44,8.14,8.14,0,0,0-1.91.1c-4.87,0-8.93,1.47-9.52,6.71h-5a12.9,12.9,0,0,1,14.55-11l.2,0c8.56,0,13.95,4,13.8,12.84V62.93a80.36,80.36,0,0,0,0,8.78h-4.8V66h0v.51a14.75,14.75,0,0,1-12.1,6.35,12,12,0,0,1-5.16-23.17A54.07,54.07,0,0,1,385,47.81Z"/><path class="cls-1" d="M402.89,72h-4.36V41.83a66.13,66.13,0,0,0-.37-8.7H403v5.75h0a10,10,0,0,1,8.7-6.94h4.65v4.95h-2.8c-6.94,0-10.55,4.94-10.7,12.39Z"/><path class="cls-1" d="M431.51,68.91c10.18,0,12.1-8.41,11.66-16.53-6.64,0-20.36-1-20.36,8.78A7.36,7.36,0,0,0,429.67,69a7.53,7.53,0,0,0,1.84-.1m11.66-24.64a7.91,7.91,0,0,0-7.63-8.16,8.39,8.39,0,0,0-1.59.11c-4.87,0-8.93,1.48-9.52,6.72h-4.94a12.76,12.76,0,0,1,14.26-11.07l.49.07c8.56,0,13.94,4,13.8,12.84V72h-4.8V66.25h0v.52a14.77,14.77,0,0,1-12.1,6.34A11.95,11.95,0,0,1,426,50a53.78,53.78,0,0,1,17.63-1.85Z"/><path class="cls-1" d="M496.65,45c0-5.9-4.2-8.78-10.62-8.78s-11.51,7.38-11.51,16.23S479,68.91,486,68.91a9.89,9.89,0,0,0,10.62-9.08h5.17A13.87,13.87,0,0,1,487.5,73.24l-.88,0c-11.58,0-17-10-17-20.66s5.61-20.59,17.41-20.59a13.73,13.73,0,0,1,14.73,12.64l0,.42Z"/><path class="cls-1" d="M519.6,68.91c10.11,0,11.73-8.41,11.73-16.53-6.57,0-20.36-1-20.36,8.78A7.82,7.82,0,0,0,518.8,69c.32,0,.63,0,1-.06m11.58-24.64c-.44-6.35-3.69-8.34-9.22-8.34s-8.86,1.47-9.52,6.71h-4.94a12.83,12.83,0,0,1,14.41-11l.34,0c8.63,0,14,4,13.8,12.84V71.71h-4.87V66.4h0v.51a14.75,14.75,0,0,1-12.17,6.35,12,12,0,0,1-5.09-23.17,53.48,53.48,0,0,1,17.26-2Z"/><path class="cls-1" d="M559.22,36.22c-8.78,0-11.66,8.05-11.66,15.42s2.07,17,11,17c10.11,0,13.21-8.49,13.21-17.27s-3.54-15.2-12.54-15.2M571.91,66.4h0a15.73,15.73,0,0,1-13.28,7.38c-11.59,0-15.94-11-15.94-20.74S547,32.61,558.63,32.61A15.44,15.44,0,0,1,571.91,40h0V16.08h4.64V63.23A55.11,55.11,0,0,0,577,72h-4.8Z"/><path class="cls-1" d="M596.47,68.91c10.18,0,12.1-8.41,11.66-16.53-6.64,0-20.36-1-20.36,8.78A7.37,7.37,0,0,0,594.64,69a7.48,7.48,0,0,0,1.83-.1m11.66-24.64a7.9,7.9,0,0,0-7.32-8.44,8.08,8.08,0,0,0-1.9.1c-4.87,0-8.93,1.47-9.52,6.71h-4.94a12.75,12.75,0,0,1,14.26-11.06l.49.07c8.56,0,13.95,4,13.8,12.84V71.71h-4.8V66h0v.51a14.75,14.75,0,0,1-12.1,6.35A11.88,11.88,0,0,1,583,62.26c0-.37-.06-.73-.07-1.1A12,12,0,0,1,590.35,50,53.8,53.8,0,0,1,608,48.1Z"/><rect class="cls-1" x="296.8" width="1.48" height="96.35"/><path class="cls-1" d="M640.67,21.63h-5.43V15.81h5.43Zm-.39,11.25V71.83h-4.65V32.88Z"/><path class="cls-1" d="M657.43,71.83h-4.66V41.65c0-1.5,0-3-.11-4.5s-.17-2.93-.27-4.27h4.81l.23,5.74.16.16a13,13,0,0,1,5.19-5.36,14.52,14.52,0,0,1,7-1.71,15.31,15.31,0,0,1,5.43.86A12,12,0,0,1,679,34.78a11.37,11.37,0,0,1,2.45,3.1,17,17,0,0,1,1.4,3.5,19,19,0,0,1,.58,3.37c.07,1.09.11,2,.11,2.72V71.83h-4.65V46.69q0-5.11-2.72-7.91A10,10,0,0,0,668.6,36a10.09,10.09,0,0,0-8.45,4.12,12.41,12.41,0,0,0-2.06,4.26,19.05,19.05,0,0,0-.66,5Z"/><path class="cls-1" d="M699.26,71.83V37.15h-7.84V32.88h7.84v-8.3c0-3.37.72-5.82,2.17-7.38s3.85-2.32,7.22-2.32a8.18,8.18,0,0,1,2.21.31c.75.2,1.48.38,2.21.54v3.72a13.5,13.5,0,0,0-1.44-.23,14.18,14.18,0,0,0-1.43-.08,9.45,9.45,0,0,0-3.73.59,3.71,3.71,0,0,0-1.9,1.7,6.6,6.6,0,0,0-.66,2.76c0,1.08,0,2.33,0,3.72v5h8.85v4.27h-8.85V71.83Z"/><path class="cls-1" d="M742.25,44.36q-.39-4.8-2.72-6.59A10.49,10.49,0,0,0,733,36a19.28,19.28,0,0,0-3.49.31,8.66,8.66,0,0,0-2.91,1.09,6.33,6.33,0,0,0-2.09,2.09,7.84,7.84,0,0,0-1,3.26h-5a13.69,13.69,0,0,1,1.75-5.12,11.18,11.18,0,0,1,3.18-3.41,12.75,12.75,0,0,1,4.38-1.9,23,23,0,0,1,5.28-.59q6.43,0,10.17,3.11t3.64,9.78V63.07c0,1.5,0,3,.08,4.5s.21,2.92.31,4.26h-4.81l-.16-5.74h-.15l-.23.54A8.23,8.23,0,0,1,740.07,69a14.81,14.81,0,0,1-2.87,2,16.74,16.74,0,0,1-3.57,1.43,14,14,0,0,1-3.88.55,15.33,15.33,0,0,1-5.08-.82,11.92,11.92,0,0,1-4.11-2.36,11.09,11.09,0,0,1-2.76-3.77,12.15,12.15,0,0,1-1-5.08A11.16,11.16,0,0,1,719,54.1a13.34,13.34,0,0,1,5.66-4.38,16.59,16.59,0,0,1,4.15-1.2,35.34,35.34,0,0,1,4.5-.43c1.53-.05,3.06-.07,4.58,0s3,0,4.39-.12ZM721.84,61c0,2.64.86,4.59,2.6,5.86a10.14,10.14,0,0,0,6.17,1.9,11.76,11.76,0,0,0,6.17-1.44,9.94,9.94,0,0,0,3.64-3.76,14.18,14.18,0,0,0,1.63-5.32,35.43,35.43,0,0,0,.2-6q-2.49.07-6,.08a31.29,31.29,0,0,0-6.71.7,12.73,12.73,0,0,0-5.47,2.52A6.63,6.63,0,0,0,721.84,61Z"/><path class="cls-1" d="M763.66,71.83H759V41.65q0-2.25-.12-4.5c-.08-1.5-.17-2.93-.27-4.27h4.81l.23,5.74.16.16a13,13,0,0,1,5.2-5.36,14.51,14.51,0,0,1,7-1.71,15.31,15.31,0,0,1,5.43.86,12,12,0,0,1,3.77,2.21,11.34,11.34,0,0,1,2.44,3.1,16.5,16.5,0,0,1,1.4,3.5,18.18,18.18,0,0,1,.58,3.37c.08,1.09.12,2,.12,2.72V71.83h-4.66V46.69q0-5.11-2.71-7.91a10,10,0,0,0-7.53-2.8,10.36,10.36,0,0,0-5,1.13,10.5,10.5,0,0,0-3.49,3,12.59,12.59,0,0,0-2.06,4.26,19.05,19.05,0,0,0-.66,5Z"/><path class="cls-1" d="M826.75,44.83c-.21-3-1.21-5.23-3-6.67S819.38,36,816.12,36a9,9,0,0,0-4.85,1.32,11.78,11.78,0,0,0-3.61,3.53A18.16,18.16,0,0,0,805.37,46a23.72,23.72,0,0,0-.81,6.29,24.06,24.06,0,0,0,.81,6.32,18.43,18.43,0,0,0,2.29,5.24,11.59,11.59,0,0,0,3.61,3.57,9,9,0,0,0,4.85,1.32,10.88,10.88,0,0,0,7.45-2.52,9.36,9.36,0,0,0,3.18-6.56h5Q829.93,73,816.59,73a15.34,15.34,0,0,1-12.89-6.37A20.61,20.61,0,0,1,800.56,60a28.19,28.19,0,0,1-1-7.68,27.54,27.54,0,0,1,1.09-7.69,20,20,0,0,1,3.26-6.59,16.4,16.4,0,0,1,5.43-4.62,15.92,15.92,0,0,1,7.61-1.75,17.44,17.44,0,0,1,5.66.9,14.55,14.55,0,0,1,4.66,2.56,12.32,12.32,0,0,1,3.22,4.11,14.17,14.17,0,0,1,1.36,5.55Z"/><path class="cls-1" d="M846.07,21.63h-5.43V15.81h5.43Zm-.38,11.25V71.83H841V32.88Z"/><path class="cls-1" d="M880.22,44.36q-.39-4.8-2.72-6.59A10.49,10.49,0,0,0,871,36a19.28,19.28,0,0,0-3.49.31,8.74,8.74,0,0,0-2.91,1.09,6.33,6.33,0,0,0-2.09,2.09,7.84,7.84,0,0,0-1,3.26h-5a13.69,13.69,0,0,1,1.75-5.12,11.18,11.18,0,0,1,3.18-3.41,12.75,12.75,0,0,1,4.38-1.9,23,23,0,0,1,5.28-.59q6.44,0,10.17,3.11t3.64,9.78V63.07c0,1.5,0,3,.08,4.5s.21,2.92.31,4.26h-4.81l-.15-5.74h-.16l-.23.54A8.23,8.23,0,0,1,878,69a14.81,14.81,0,0,1-2.87,2,16.74,16.74,0,0,1-3.57,1.43,14,14,0,0,1-3.88.55,15.33,15.33,0,0,1-5.08-.82,11.92,11.92,0,0,1-4.11-2.36,11.09,11.09,0,0,1-2.76-3.77,12.15,12.15,0,0,1-1-5.08,11.15,11.15,0,0,1,2.17-6.87,13.4,13.4,0,0,1,5.66-4.38,16.59,16.59,0,0,1,4.15-1.2,35.34,35.34,0,0,1,4.5-.43c1.53-.05,3.06-.07,4.58,0s3,0,4.39-.12ZM859.81,61c0,2.64.86,4.59,2.6,5.86a10.14,10.14,0,0,0,6.17,1.9,11.76,11.76,0,0,0,6.17-1.44,9.94,9.94,0,0,0,3.64-3.76A14.18,14.18,0,0,0,880,58.21a35.43,35.43,0,0,0,.2-6q-2.49.07-6,.08a31.29,31.29,0,0,0-6.71.7,12.73,12.73,0,0,0-5.47,2.52A6.63,6.63,0,0,0,859.81,61Z"/></g></g></svg>