<svg xmlns="http://www.w3.org/2000/svg" viewBox="0 0 103.55 13.06"><defs><style>.cls-1{fill:#00aced;}</style></defs><g id="Layer_2" data-name="Layer 2"><g id="Layer_1-2" data-name="Layer 1"><path class="cls-1" d="M34.33,8.07a.7.7,0,0,1-.45-.74c0-.13.11-.07.17-.07a1.35,1.35,0,0,0,1-.5A1.57,1.57,0,0,0,35,4.63a1.28,1.28,0,0,0-2,0,.73.73,0,0,1-.58.22c-.32,0-.12.25-.12.3s-.05.09-.08.08-.06.14-.06.19a.07.07,0,0,1-.07.07c-.14,0-.1.12-.1.16a.11.11,0,0,1-.05.11.33.33,0,0,0-.1.22c0,.15.14.25.37.42a.58.58,0,0,1,.26.44,1.28,1.28,0,0,0,.06.43.28.28,0,0,1-.26.43,4.64,4.64,0,0,0-1.12.35,1.36,1.36,0,0,1-.72,0A3,3,0,0,1,30,7.87a.53.53,0,0,1,.11-.43.68.68,0,0,0,.43.12,6.54,6.54,0,0,0,.7-.1.18.18,0,0,1,.16,0A.4.4,0,0,0,32,7.17c.11-.39-.15-.28-.18-.26s-.08,0-.06,0,0-.09-.07-.09-.25.1-.29.14-.09,0-.11,0-.57,0-.7-.2a8.55,8.55,0,0,0-.17-1.16.17.17,0,0,1,0-.15c.11-.16.4,0,.56,0a.3.3,0,0,0,.28-.15c0-.06.09,0,.12-.05s0-.06,0-.09,0,0,.06,0,0-.09,0-.12.18,0,.1-.2a.32.32,0,0,1,.08-.29.76.76,0,0,0-.19-1.15,1.09,1.09,0,0,0-1.61,0,1.31,1.31,0,0,0-.16,1.23.36.36,0,0,1-.22.38,3.5,3.5,0,0,0-.54.37,3.34,3.34,0,0,1,2.1-3l.18.19c-.14.1-.44.37-.44.37l.08,0,.08,0,.39-.32a1.5,1.5,0,0,0,.32.19c-.06.1-.21.39-.21.39l.07,0,0,0,.23-.42a1.31,1.31,0,0,0,.43.08v.58l-.38,0h-.05l0,.05.06.09v0h.34V4.66h.15V4.42l.6,0h0l.19-.17h-.1c-.23,0-.43,0-.61,0h-.09V3.61a2.94,2.94,0,0,0,.78-.11c.07.17.21.59.21.59l.13,0s-.13-.41-.2-.59a3.52,3.52,0,0,0,.63-.27,3.39,3.39,0,0,1,.41.65A2.64,2.64,0,0,1,34,4l.27,0,.08,0a.49.49,0,0,1,0,.09l.19.08,0,0s-.06-.15-.08-.18c.2-.1.4-.22.59-.34a3.36,3.36,0,0,1-.78,4.5m-2.4-6a4.19,4.19,0,0,0-.59.32,1.06,1.06,0,0,1-.15-.15,2.74,2.74,0,0,1,.74-.17m-.2.57a1.17,1.17,0,0,1-.27-.15,2.89,2.89,0,0,1,.6-.32,4,4,0,0,0-.33.47m.49-.44v.55a2,2,0,0,1-.35-.06,3.36,3.36,0,0,1,.35-.49m.15.69a1.32,1.32,0,0,0,.44-.08,5.93,5.93,0,0,1,.29.56,3.66,3.66,0,0,1-.73.1Zm0-.7a4.54,4.54,0,0,1,.36.5,2.25,2.25,0,0,1-.36.06Zm.77.3a1.82,1.82,0,0,1-.27.15,5.09,5.09,0,0,0-.34-.47,3,3,0,0,1,.61.32m.27-.25-.15.15a4.19,4.19,0,0,0-.59-.32,3.18,3.18,0,0,1,.74.17m.41.84a3,3,0,0,1-.58.25,5.12,5.12,0,0,0-.3-.57,1.29,1.29,0,0,0,.32-.19,3,3,0,0,1,.56.51m-.27-.79a3.1,3.1,0,0,1,.79.45A2.7,2.7,0,0,1,34,3a3.58,3.58,0,0,0-.57-.53,1.54,1.54,0,0,0,.17-.19M35,3.45a5.3,5.3,0,0,1-.57.33A2.84,2.84,0,0,0,34,3.12a2.5,2.5,0,0,0,.41-.29,3.41,3.41,0,0,1,.58.62M32.3,1.9a3.5,3.5,0,1,0,3.5,3.5,3.5,3.5,0,0,0-3.5-3.5"/><path class="cls-1" d="M28.48,2.83l-.05,0a1.49,1.49,0,0,0-.6,1.19v0l0,.1.06-.06a2.16,2.16,0,0,0,.59-1.22l0-.15Z"/><path class="cls-1" d="M27.53,3.74l0,.07a1.8,1.8,0,0,0-.13.51,1.62,1.62,0,0,0,.27,1.21l0,0,0,0,0-.23A4.27,4.27,0,0,0,27.6,3.8l-.05-.12Z"/><path class="cls-1" d="M27.18,5.16v.07a1.83,1.83,0,0,0,.7,1.69L28,7v-.1a4.37,4.37,0,0,0-.69-1.67l-.08-.1Z"/><path class="cls-1" d="M27.3,6.72l0,.06a2.21,2.21,0,0,0,1.31,1.55l.1,0,0-.09a4.41,4.41,0,0,0-1.3-1.54l-.1-.07Z"/><path class="cls-1" d="M28.78,3.59l-.06,0a1.36,1.36,0,0,0-.78,1.24V5L28,4.91a3.26,3.26,0,0,0,.78-1.23l0-.13Z"/><path class="cls-1" d="M28.46,4.68l0,0a1.65,1.65,0,0,0-.56,1.21,1.67,1.67,0,0,0,.06.29l0,.1L28,6.24a3.44,3.44,0,0,0,.48-1.49V4.64Z"/><path class="cls-1" d="M28.48,5.71l0,0a1.82,1.82,0,0,0-.34,1,1.2,1.2,0,0,0,.23.67l.05.07,0-.07a3.93,3.93,0,0,0,.16-1.26,1.47,1.47,0,0,0-.05-.41l0-.1Z"/><path class="cls-1" d="M28.75,6.82l0,0a1.8,1.8,0,0,0-.09.64,1.24,1.24,0,0,0,.6,1.07l.07,0,0-.08V8.46a4.28,4.28,0,0,0-.51-1.61l-.06-.08Z"/><path class="cls-1" d="M28,8.29l0,0a1.64,1.64,0,0,0,1.73,1h.08l0-.07a4.47,4.47,0,0,0-1.7-1l-.11,0Z"/><path class="cls-1" d="M29.36,9.54h0l-.15,0,.14.06a3,3,0,0,0,1.77.17,1.12,1.12,0,0,0,.38-.26,3.15,3.15,0,0,1,1.89,1.22l0,0h0a.42.42,0,0,0,.15-.11l0,0,0,0a3.81,3.81,0,0,0-1.14-.93,4.46,4.46,0,0,0-3.1-.15"/><path class="cls-1" d="M29.39,8V8c.09.56.31,1.29,1.26,1.21h.06l0-.06c-.06-.26-.93-1-1.23-1.2l-.09,0Z"/><path class="cls-1" d="M36.07,2.78l0,.15a2.23,2.23,0,0,0,.59,1.22l.07.06,0-.1v0a1.54,1.54,0,0,0-.6-1.19l-.06,0Z"/><path class="cls-1" d="M37.05,3.68l0,.12a4.49,4.49,0,0,0-.16,1.59l0,.23,0,0,0,0a1.57,1.57,0,0,0,.26-1.21,2.38,2.38,0,0,0-.12-.51l0-.07Z"/><path class="cls-1" d="M37.42,5.1l-.08.1a4.37,4.37,0,0,0-.69,1.67V7l.08,0a1.85,1.85,0,0,0,.7-1.69V5.1Z"/><path class="cls-1" d="M37.32,6.66l-.11.07a4.63,4.63,0,0,0-1.3,1.54l0,.09.1,0a2.19,2.19,0,0,0,1.31-1.55V6.72Z"/><path class="cls-1" d="M35.8,3.54l0,.13a3.31,3.31,0,0,0,.75,1.24l.07.06V4.86a1.35,1.35,0,0,0-.76-1.25l0,0Z"/><path class="cls-1" d="M36.11,4.64v.11a3.6,3.6,0,0,0,.49,1.49l.06.08,0-.1a.79.79,0,0,0,.06-.29,1.65,1.65,0,0,0-.55-1.21l0,0Z"/><path class="cls-1" d="M36.1,5.67l0,.1a1.47,1.47,0,0,0,0,.41,3.43,3.43,0,0,0,.16,1.26l0,.07.05-.07a1.19,1.19,0,0,0,.22-.67,1.73,1.73,0,0,0-.33-1l0,0Z"/><path class="cls-1" d="M35.85,6.77l-.06.08a4.28,4.28,0,0,0-.51,1.61v.08l0,.08.06,0A1.25,1.25,0,0,0,36,7.51a2.06,2.06,0,0,0-.09-.64l0,0Z"/><path class="cls-1" d="M36.66,8.24l-.11,0a4.59,4.59,0,0,0-1.71,1l0,.07h.08a1.62,1.62,0,0,0,1.72-1l0,0Z"/><path class="cls-1" d="M32.15,9.69a3.57,3.57,0,0,0-1.14.93l0,0,0,0a.49.49,0,0,0,.14.11h0l0,0A3.1,3.1,0,0,1,33.1,9.55a1.07,1.07,0,0,0,.39.26,3,3,0,0,0,1.77-.17l.14-.06-.15,0a4.46,4.46,0,0,0-3.1.15"/><path class="cls-1" d="M35.23,7.91l-.09,0a4.91,4.91,0,0,0-1.24,1.2v.06H34c.94.08,1.17-.65,1.26-1.21v-.1Z"/><path class="cls-1" d="M11.14,4.48h1v5.3h-1Zm-.09-2.33h1.19V3.24H11.05Z"/><path class="cls-1" d="M3.56,4.48h1V9.79h-1V9h0A2,2,0,0,1,1.74,10,1.74,1.74,0,0,1,0,8V4.48H1V7.62c0,.92.21,1.6,1.17,1.6a1.25,1.25,0,0,0,1.18-.76,3.94,3.94,0,0,0,.2-1.25Z"/><path class="cls-1" d="M6.57,5.26h0A1.86,1.86,0,0,1,8.2,4.32a1.82,1.82,0,0,1,2,1.8V9.79h-1V6.45C9.21,5.57,8.83,5.1,8,5.1a1.33,1.33,0,0,0-1,.39c-.15.14-.43.38-.43,1.41V9.79h-1V4.48h1Z"/><path class="cls-1" d="M16.35,6.18c-.05-.66-.36-1.12-1.08-1.12-.95,0-1.32.83-1.32,2.07s.37,2.07,1.32,2.07c.66,0,1.07-.43,1.13-1.19h1a2,2,0,0,1-2.13,1.91c-1.69,0-2.36-1.19-2.36-2.75s.78-2.84,2.45-2.84a1.88,1.88,0,0,1,2,1.85Z"/><path class="cls-1" d="M21.56,6.63c0-.89-.38-1.57-1.34-1.57a1.4,1.4,0,0,0-1.33,1.57Zm-2.67.69c-.07.92.31,1.88,1.33,1.88A1.12,1.12,0,0,0,21.5,8.13h1.05a2.09,2.09,0,0,1-2.34,1.79c-1.69,0-2.37-1.19-2.37-2.75s.78-2.84,2.45-2.84a2.22,2.22,0,0,1,2.32,2.5v.49Z"/><path class="cls-1" d="M23.74,9.77V5.19h-.91v-.7h.91V3.36A1.45,1.45,0,0,1,25.39,1.9a4.45,4.45,0,0,1,.72.1v.83c-.17,0-.34,0-.51,0-.56,0-.89.15-.86.73v1H26v.7H24.74V9.77Z"/><path class="cls-1" d="M45.92,9.34C47.13,9.34,47.44,8,47.44,7S47,4.91,45.83,4.91s-1.7,1-1.7,2.09.42,2.34,1.79,2.34m-1.79,2.43H43.5V5.67c0-.4,0-.82,0-1.18h.65l0,.78,0,0a2.11,2.11,0,0,1,1.81-1c1.56,0,2.16,1.41,2.16,2.77S47.52,9.91,46,9.91a2.15,2.15,0,0,1-1.84-1h0Z"/><path class="cls-1" d="M50.54,9.34c1.38,0,1.64-1.14,1.58-2.24-.9,0-2.76-.13-2.76,1.19a1,1,0,0,0,1.18,1.05M52.12,6a1.07,1.07,0,0,0-1.25-1.13c-.66,0-1.21.2-1.29.91H48.9a1.75,1.75,0,0,1,2-1.49c1.16,0,1.89.54,1.87,1.74v2.5a11.24,11.24,0,0,0,0,1.19h-.65l0-.78h0l0,.07a2,2,0,0,1-1.64.86,1.62,1.62,0,0,1-.7-3.14,7.32,7.32,0,0,1,2.39-.25Z"/><path class="cls-1" d="M54.59,9.76H54V5.67c0-.4,0-.82-.05-1.18h.65l0,.78h0a1.35,1.35,0,0,1,1.18-.94c.21,0,.42,0,.63,0V5c-.12,0-.26,0-.38,0-.94,0-1.43.67-1.45,1.68Z"/><path class="cls-1" d="M58.47,9.34c1.38,0,1.64-1.14,1.58-2.24-.9,0-2.76-.13-2.76,1.19a1,1,0,0,0,1.18,1.05M60.05,6A1.07,1.07,0,0,0,58.8,4.91c-.66,0-1.21.2-1.29.91h-.67a1.73,1.73,0,0,1,2-1.49c1.16,0,1.89.54,1.87,1.74v2.5c0,.41,0,.83,0,1.19h-.65l0-.78h0l0,.07a2,2,0,0,1-1.64.86,1.62,1.62,0,0,1-.7-3.14,7.32,7.32,0,0,1,2.39-.25Z"/><path class="cls-1" d="M67.3,6.1c0-.8-.57-1.19-1.44-1.19s-1.56,1-1.56,2.2.6,2.23,1.56,2.23A1.34,1.34,0,0,0,67.3,8.11H68a1.88,1.88,0,0,1-2.06,1.81c-1.57,0-2.3-1.36-2.3-2.8S64.4,4.33,66,4.33A1.86,1.86,0,0,1,68,6.1Z"/><path class="cls-1" d="M70.41,9.34C71.78,9.34,72,8.2,72,7.1c-.89,0-2.76-.13-2.76,1.19a1.06,1.06,0,0,0,1.19,1.05M72,6c-.06-.86-.5-1.13-1.25-1.13s-1.2.2-1.29.91h-.67a1.74,1.74,0,0,1,2-1.49c1.17,0,1.89.54,1.87,1.74v2.5c0,.41,0,.83,0,1.19H72L72,9h0l0,.07a2,2,0,0,1-1.65.86,1.62,1.62,0,0,1-.69-3.14A7.26,7.26,0,0,1,72,6.52Z"/><path class="cls-1" d="M75.78,4.91C74.59,4.91,74.2,6,74.2,7s.28,2.31,1.49,2.31c1.37,0,1.79-1.15,1.79-2.34S77,4.91,75.78,4.91M77.5,9l0,0a2.13,2.13,0,0,1-1.8,1c-1.57,0-2.16-1.49-2.16-2.81s.59-2.77,2.16-2.77a2.09,2.09,0,0,1,1.8,1l0,0V2.18h.63V8.57c0,.41,0,.83.06,1.19h-.65Z"/><path class="cls-1" d="M80.83,9.34c1.38,0,1.64-1.14,1.58-2.24-.9,0-2.76-.13-2.76,1.19a1,1,0,0,0,1.18,1.05M82.41,6a1.07,1.07,0,0,0-1.25-1.13c-.66,0-1.21.2-1.29.91H79.2a1.73,1.73,0,0,1,2-1.49c1.16,0,1.89.54,1.87,1.74v2.5c0,.41,0,.83,0,1.19h-.65l0-.78h0l0,.07a2,2,0,0,1-1.64.86A1.61,1.61,0,0,1,79,8.29,1.63,1.63,0,0,1,80,6.77a7.32,7.32,0,0,1,2.39-.25Z"/><path class="cls-1" d="M87,9.76h-.63V5.67c0-.4,0-.82,0-1.18h.65l0,.78,0,0a1.83,1.83,0,0,1,1.65-1,1.86,1.86,0,0,1,1.86,2.13v3.3h-.63V6.36a1.3,1.3,0,0,0-1.39-1.45c-1,0-1.51.87-1.51,1.81Z"/><path class="cls-1" d="M92.34,9.76h-.63V4.49h.63Zm0-6.79h-.74V2.18h.74Z"/><path class="cls-1" d="M97.1,2.46a1,1,0,0,1-1,.9,1.26,1.26,0,0,1-.47-.12,1.79,1.79,0,0,0-.56-.11.49.49,0,0,0-.5.31h-.4a1,1,0,0,1,1.14-.84,2.17,2.17,0,0,1,.42.12,2.21,2.21,0,0,0,.41.09.53.53,0,0,0,.52-.35Zm-2.9,7.3h-.63V5.67c0-.4,0-.81,0-1.18h.65l0,.78,0,0a1.81,1.81,0,0,1,1.65-1,1.86,1.86,0,0,1,1.86,2.13v3.3H97.1V6.36a1.3,1.3,0,0,0-1.39-1.45c-1,0-1.51.87-1.51,1.81Z"/><path class="cls-1" d="M101.09,4.91c-1.27,0-1.77,1.24-1.77,2.21s.5,2.22,1.77,2.22,1.77-1.24,1.77-2.22-.5-2.21-1.77-2.21m2.46,2.21a2.48,2.48,0,1,1-4.92,0,2.48,2.48,0,1,1,4.92,0"/><rect class="cls-1" x="40.21" width="0.2" height="13.06"/></g></g></svg>