<svg xmlns="http://www.w3.org/2000/svg" viewBox="0 0 416.69 51.61"><defs><style>.cls-1{fill:#03a8e1;}</style></defs><g id="Layer_2" data-name="Layer 2"><g id="Layer_1-2" data-name="Layer 1"><path class="cls-1" d="M132.65,7.52c-7.92,0-14.37,6.21-14.37,13.83s6.45,13.83,14.37,13.83A14.11,14.11,0,0,0,147,21.35,14.12,14.12,0,0,0,132.65,7.52m11.2,6.12a20.66,20.66,0,0,1-2.31,1.28,14.61,14.61,0,0,0-1.71-2.58,14.09,14.09,0,0,0,1.67-1.15,13.29,13.29,0,0,1,2.35,2.45m-6-4.59A13.72,13.72,0,0,1,141,10.83a13.39,13.39,0,0,1-1.59,1.07,14.77,14.77,0,0,0-2.36-2.1,6.47,6.47,0,0,0,.73-.75m1.11,3.14a13.74,13.74,0,0,1-2.42,1,19.41,19.41,0,0,0-1.2-2.25,6.23,6.23,0,0,0,1.31-.74,14,14,0,0,1,2.31,2m-1.7-3.35a5.28,5.28,0,0,1-.63.62,15.43,15.43,0,0,0-2.41-1.28,14,14,0,0,1,3,.66m-1.12,1a6.86,6.86,0,0,1-1.1.59c-.42-.63-.89-1.25-1.39-1.86a15,15,0,0,1,2.49,1.27m-3.16-1.17a19.42,19.42,0,0,1,1.49,2,6.93,6.93,0,0,1-1.49.25Zm0,2.78a7.31,7.31,0,0,0,1.81-.32,19.31,19.31,0,0,1,1.18,2.2,13.69,13.69,0,0,1-3,.39Zm-.6-2.75v2.18a6.66,6.66,0,0,1-1.46-.25,19.17,19.17,0,0,1,1.46-1.93m-2,1.73a5.87,5.87,0,0,1-1.11-.59,14.1,14.1,0,0,1,2.48-1.26,18.8,18.8,0,0,0-1.37,1.85m.82-2.25a15.14,15.14,0,0,0-2.42,1.29c-.23-.2-.44-.41-.64-.62a13.82,13.82,0,0,1,3.06-.67M141,31.91c-1.91-1-2-2.41-1.85-2.93s.47-.29.71-.29a5.66,5.66,0,0,0,4.21-2,6,6,0,0,0-.41-8.42c-3-2.82-6.27-2.32-8.36.21a3.28,3.28,0,0,1-2.37.87c-1.34-.05-.5,1-.5,1.17s-.2.36-.32.33c-.45-.13-.27.52-.27.72a.31.31,0,0,1-.29.29c-.56,0-.4.49-.39.62a.46.46,0,0,1-.22.46,1.14,1.14,0,0,0-.39.85c0,.58.56,1,1.5,1.66a2.1,2.1,0,0,1,1.06,1.76,5.12,5.12,0,0,0,.28,1.69,1.15,1.15,0,0,1-1.07,1.71A18.85,18.85,0,0,0,127.69,32a5.69,5.69,0,0,1-3,.2,16.66,16.66,0,0,1-1.41-1.1,2.08,2.08,0,0,1,.46-1.71,2.51,2.51,0,0,0,1.74.49,20.45,20.45,0,0,0,2.9-.41.84.84,0,0,1,.63,0,1.65,1.65,0,0,0,2.41-1.14c.46-1.52-.63-1.09-.76-1s-.33.05-.26-.08c.2-.39-.1-.34-.27-.36a2.09,2.09,0,0,0-1.2.57.46.46,0,0,1-.44.12c-.59-.28-2.33.12-2.87-.79a30,30,0,0,0-.69-4.57.58.58,0,0,1,.06-.6c.45-.64,1.67.05,2.33,0a1.18,1.18,0,0,0,1.13-.59c.21-.25.36-.11.48-.18s0-.27.06-.37.11-.05.24-.16,0-.36.05-.46c.2-.28.73-.06.41-.8a1.17,1.17,0,0,1,.31-1.14c.38-.48,1.86-2.49-.75-4.57s-5-1.83-6.65-.13-.81,4.18-.64,4.83a1.37,1.37,0,0,1-.88,1.5,12.33,12.33,0,0,0-2.23,1.5A13.22,13.22,0,0,1,127.5,9a5.74,5.74,0,0,0,.73.75c-.58.41-1.83,1.48-1.83,1.48l.33.07.34.09s1.11-.9,1.62-1.26a7.35,7.35,0,0,0,1.31.74c-.25.4-.87,1.54-.87,1.54l.27.17a1.71,1.71,0,0,1,.21.15s.69-1.24.95-1.65a6.79,6.79,0,0,0,1.78.31v2.28c-.33,0-1.2,0-1.55-.08l-.22,0,.12.18a3.21,3.21,0,0,1,.23.38l0,.05H131l1.34.06v4.14h.6v-1c.88,0,1.61-.1,2.49-.17h0l.77-.66-.42,0c-.93.12-1.75.18-2.49.22l-.39,0V14.28a14.77,14.77,0,0,0,3.23-.44c.28.69.83,2.35.83,2.35l.56-.17s-.54-1.65-.83-2.34a13.82,13.82,0,0,0,2.58-1,13.57,13.57,0,0,1,1.7,2.54c-.42.19-1.19.45-1.19.45a7,7,0,0,1,1.09.21l.35-.15.17.36.77.33-.09-.21-.32-.72a20.94,20.94,0,0,0,2.4-1.34,12.9,12.9,0,0,1,2.24,7.25A13.12,13.12,0,0,1,141,31.91"/><path class="cls-1" d="M117,11.2l-.22.19c-.85.72-2.77,2.61-2.48,4.69,0,0,0,.15,0,.15l.1.41.27-.23a8.45,8.45,0,0,0,2.42-4.83l.1-.57Z"/><path class="cls-1" d="M113.07,14.79,113,15a9.67,9.67,0,0,0-.5,2.05,6.05,6.05,0,0,0,1.09,4.76l.14.18.14.17.19-.88a16.84,16.84,0,0,0-.66-6.28l-.21-.5Z"/><path class="cls-1" d="M111.64,20.41l0,.26c-.1,1.39,0,4.84,2.88,6.67l.34.21v-.39A17.16,17.16,0,0,0,112,20.55l-.34-.4Z"/><path class="cls-1" d="M112.14,26.58l0,.23c.43,2,2.38,5.19,5.39,6.13l.42.12-.15-.39a18.32,18.32,0,0,0-5.34-6.07l-.42-.26Z"/><path class="cls-1" d="M118.2,14.18l-.24.14c-2.25,1.32-3.3,2.92-3.22,4.89l0,.45.33-.26a12.87,12.87,0,0,0,3.18-4.84l.17-.51Z"/><path class="cls-1" d="M116.88,18.5l-.17.16c-.58.52-2.44,2.43-2.27,4.78a4.32,4.32,0,0,0,.25,1.16l.13.38.24-.33a13.12,13.12,0,0,0,2-5.85l0-.45Z"/><path class="cls-1" d="M117,22.59l-.13.18a6.8,6.8,0,0,0-1.39,4,4.82,4.82,0,0,0,.93,2.67l.19.28.17-.3a14,14,0,0,0,.68-5,6.24,6.24,0,0,0-.21-1.59l-.12-.41Z"/><path class="cls-1" d="M118.06,27l-.06.19a7.65,7.65,0,0,0-.39,2.53,5,5,0,0,0,2.5,4.25l.28.16,0-.35s0-.28,0-.28a16.53,16.53,0,0,0-2.1-6.37l-.25-.32Z"/><path class="cls-1" d="M114.9,32.76,115,33c1.21,1.95,3.26,4.46,7.1,3.82l.32-.06-.18-.26c-.72-1-5.37-3.55-7-3.81l-.45-.07Z"/><path class="cls-1" d="M120.57,37.71h0l-.6.16.58.22a12.28,12.28,0,0,0,7.27.68,4,4,0,0,0,1.57-1c3.12.31,6,2.81,7.74,4.85l.1.1.13,0a2,2,0,0,0,.61-.41l.12-.12L138,42a15.25,15.25,0,0,0-4.68-3.68c-2.51-1.18-6.93-2.09-12.73-.58"/><path class="cls-1" d="M120.7,31.47l0,.19c.36,2.22,1.3,5.12,5.18,4.8l.25,0-.07-.24c-.26-1-3.82-3.92-5.06-4.75l-.37-.18Z"/><path class="cls-1" d="M148.14,11l.11.57a8.45,8.45,0,0,0,2.42,4.83l.27.23.1-.41a1,1,0,0,1,0-.15c.29-2.08-1.63-4-2.47-4.69l-.23-.19Z"/><path class="cls-1" d="M152.19,14.54,152,15a16.64,16.64,0,0,0-.66,6.28l.18.88.15-.18.14-.17a6.05,6.05,0,0,0,1.09-4.76,9.67,9.67,0,0,0-.5-2.05l-.1-.25Z"/><path class="cls-1" d="M153.69,20.15l-.34.4a17.13,17.13,0,0,0-2.82,6.61l0,.39.34-.21c2.9-1.83,3-5.28,2.88-6.67l0-.26Z"/><path class="cls-1" d="M153.26,26.34l-.42.26a18.2,18.2,0,0,0-5.34,6.07l-.15.39.42-.12c3-.93,5-4.14,5.39-6.13l.05-.23Z"/><path class="cls-1" d="M147,14l.15.51a13,13,0,0,0,3.08,4.91l.33.26,0-.45c.12-2-.9-3.58-3.11-4.94l-.24-.15Z"/><path class="cls-1" d="M148.3,18.35v.44a13,13,0,0,0,2,5.86l.24.32.13-.37a4,4,0,0,0,.25-1.16c.17-2.35-1.69-4.26-2.27-4.78l-.17-.16Z"/><path class="cls-1" d="M148.25,22.41l-.12.41a5.88,5.88,0,0,0-.2,1.59,13.86,13.86,0,0,0,.67,5l.17.3.2-.28a4.89,4.89,0,0,0,.92-2.67,6.8,6.8,0,0,0-1.39-4l-.12-.18Z"/><path class="cls-1" d="M147.22,26.77l-.24.32a16.36,16.36,0,0,0-2.1,6.37s0,.27,0,.28l.05.35.28-.16a4.93,4.93,0,0,0,2.5-4.25,7.65,7.65,0,0,0-.39-2.53l-.07-.19Z"/><path class="cls-1" d="M150.57,32.57l-.45.07c-1.65.26-6.3,2.79-7,3.81l-.18.26.32.06c3.84.64,5.89-1.88,7.1-3.82l.11-.19Z"/><path class="cls-1" d="M132.05,38.29A15.25,15.25,0,0,0,127.37,42l-.11.13.12.13a2,2,0,0,0,.61.41l.13,0,.1-.1c1.7-2,4.62-4.54,7.74-4.85a4,4,0,0,0,1.57,1,12.36,12.36,0,0,0,7.27-.68l.58-.22-.6-.16c-5.8-1.51-10.22-.6-12.73.58"/><path class="cls-1" d="M144.68,31.27l-.37.18c-1.25.83-4.8,3.75-5.06,4.75l-.06.24.24,0c3.88.32,4.82-2.58,5.18-4.8l0-.19Z"/><path class="cls-1" d="M45.38,8.5h4.91v4.31H45.38Zm.39,9.2H49.9v21H45.77Z"/><path class="cls-1" d="M14.63,17.71h4.13v21h-4V35.6h-.09C13,38.23,10.2,39.32,7.16,39.32,2.61,39.32,0,36,0,31.76v-14H4.13V30.13c0,3.63.86,6.31,4.82,6.31a5.2,5.2,0,0,0,4.86-3,15,15,0,0,0,.82-4.93Z"/><path class="cls-1" d="M27,20.81h.09a7.61,7.61,0,0,1,6.6-3.72c1.52,0,8.25.37,8.25,7.1v14.5H37.81V25.49c0-3.47-1.52-5.35-5-5.35a5.77,5.77,0,0,0-4,1.54c-.61.59-1.74,1.51-1.74,5.6V38.69H23v-21h4Z"/><path class="cls-1" d="M67.17,24.44C67,21.83,65.66,20,62.73,20c-3.92,0-5.44,3.28-5.44,8.18s1.52,8.18,5.44,8.18c2.71,0,4.4-1.7,4.61-4.69h4.1c-.35,4.69-4,7.55-8.76,7.55-6.94,0-9.7-4.73-9.7-10.87S56.17,17.13,63,17.13c4.58,0,8,2.79,8.23,7.31Z"/><path class="cls-1" d="M77.6,28.92c-.3,3.66,1.25,7.44,5.44,7.44,3.19,0,4.78-1.2,5.26-4.24h4.31c-.64,4.74-4.44,7.1-9.61,7.1-7,0-9.72-4.73-9.72-10.87s3.2-11.22,10.06-11.22c6.47.13,9.53,4.07,9.53,9.85v1.94Zm11-2.73C88.65,22.7,87,20,83,20c-3.42,0-5.44,2.78-5.44,6.19Z"/><path class="cls-1" d="M97.51,38.6V20.5H93.79V17.75h3.72V13.28c.14-4.57,3.71-5.78,6.78-5.78a17.65,17.65,0,0,1,2.94.42v3.27c-.7,0-1.39-.12-2.08-.12-2.33,0-3.67.59-3.54,2.87v3.81h5V20.5h-5V38.6Z"/><path class="cls-1" d="M180.94,38.57V20h-4.35V17.74h4.35V13.3c0-3.56,1.51-5.18,5.22-5.18a12.7,12.7,0,0,1,2.46.45v2a9.66,9.66,0,0,0-1.6-.17c-3.53,0-3.62,1.7-3.49,4.69v2.65h4.91V20h-4.91V38.57Z"/><path class="cls-1" d="M209.58,28.16c0,5.47-3.19,11-10.09,11s-10.08-5.56-10.08-11,3.19-11,10.08-11,10.09,5.56,10.09,11M199.49,19.4c-5.21,0-7.28,4.9-7.28,8.76s2.07,8.75,7.28,8.75,7.29-4.9,7.29-8.75-2.07-8.76-7.29-8.76"/><path class="cls-1" d="M215.92,38.57h-2.58V22.43c0-1.62-.13-3.28-.22-4.69h2.68l.12,3.07H216a5.55,5.55,0,0,1,4.87-3.69c.86,0,1.73,0,2.59,0v2.41c-.52,0-1.08-.17-1.6-.17-3.83,0-5.86,2.66-6,6.64Z"/><path class="cls-1" d="M236,28.74c.09,4.44,2.2,8.17,7.5,8.17a6.39,6.39,0,0,0,6.25-5h2.72c-1.34,5-4.57,7.26-9.79,7.26-6.46,0-9.48-5.35-9.48-11s3.23-11,9.65-11c7.25,0,9.88,5.1,9.88,11.62Zm13.92-2.29c-.3-4-2.54-7-7-7-4.23,0-6.47,3.4-6.81,7.05Z"/><polygon class="cls-1" points="256.22 17.74 263.68 35.13 270.88 17.74 273.72 17.74 265.14 38.57 262.21 38.57 253.38 17.74 256.22 17.74"/><path class="cls-1" d="M277.05,28.74c.09,4.44,2.2,8.17,7.5,8.17a6.39,6.39,0,0,0,6.25-5h2.72c-1.34,5-4.57,7.26-9.79,7.26-6.46,0-9.48-5.35-9.48-11s3.23-11,9.66-11c7.24,0,9.87,5.1,9.87,11.62ZM291,26.45c-.31-4-2.55-7-7-7-4.22,0-6.47,3.4-6.81,7.05Z"/><path class="cls-1" d="M300.38,38.57h-2.59V22.43c0-1.62-.13-3.28-.21-4.69h2.67l.13,3.07h.08a5.55,5.55,0,0,1,4.87-3.69c.87,0,1.73,0,2.59,0v2.41c-.52,0-1.08-.17-1.59-.17-3.84,0-5.87,2.66-5.95,6.64Z"/><polygon class="cls-1" points="313.48 17.74 320.77 35.17 328.01 17.74 330.81 17.74 318.87 46.53 316.02 46.53 319.3 38.57 310.33 17.74 313.48 17.74"/><path class="cls-1" d="M355.47,24.13c-.22-3.19-2.33-4.73-5.91-4.73-4,0-6.42,4-6.42,8.71s2.46,8.8,6.42,8.8c3.36,0,5.69-2,5.91-4.85h2.8c-.69,4.77-3.54,7.13-8.45,7.13-6.47,0-9.48-5.35-9.48-11s3.23-11,9.65-11c4.44,0,8.06,2.57,8.28,7Z"/><path class="cls-1" d="M364.46,20.9h.09a7.47,7.47,0,0,1,6.76-3.78c7.07,0,7.63,6,7.63,8.42v13h-2.58V25.13c0-3.61-2.16-5.73-5.69-5.73-4.27,0-6.21,3.45-6.21,7.18v12h-2.59V8.62h2.59Z"/><path class="cls-1" d="M386.1,11.73h-3V8.62h3Zm-.22,26.84H383.3V17.74h2.58Z"/><rect class="cls-1" x="390.96" y="8.62" width="2.59" height="29.95"/><path class="cls-1" d="M413.89,35.5l-.08-.17a8.89,8.89,0,0,1-7.42,3.86c-6.42,0-8.88-5.89-8.88-11.12,0-5.39,2.46-10.95,8.88-10.95a8.75,8.75,0,0,1,7.42,3.78l.08-.09V8.62h2.59V33.88c0,1.62.13,3.28.21,4.69H414Zm-7.07-16.1c-4.91,0-6.51,4.4-6.51,8.38s1.17,9.13,6.13,9.13c5.64,0,7.37-4.52,7.37-9.25,0-4.23-1.94-8.26-7-8.26"/><rect class="cls-1" x="165.16" width="0.83" height="51.61"/></g></g></svg>